<?xml version="1.0" encoding="UTF-8" standalone="no"?>
<!DOCTYPE svg PUBLIC "-//W3C//DTD SVG 1.0//EN" "http://www.w3.org/TR/2001/PR-SVG-20010719/DTD/svg10.dtd">
<svg width="17cm" height="22cm" viewBox="18 -1 323 422" xmlns="http://www.w3.org/2000/svg" xmlns:xlink="http://www.w3.org/1999/xlink">
  <line style="fill: none; fill-opacity:0; stroke-width: 2; stroke: #e5e5e5" x1="220" y1="200" x2="220" y2="340"/>
  <line style="fill: none; fill-opacity:0; stroke-width: 2; stroke: #e5e5e5" x1="240" y1="200" x2="240" y2="340"/>
  <line style="fill: none; fill-opacity:0; stroke-width: 2; stroke: #e5e5e5" x1="260" y1="200" x2="260" y2="340"/>
  <line style="fill: none; fill-opacity:0; stroke-width: 2; stroke: #e5e5e5" x1="280" y1="200" x2="280" y2="340"/>
  <line style="fill: none; fill-opacity:0; stroke-width: 2; stroke: #e5e5e5" x1="300" y1="200" x2="300" y2="340"/>
  <line style="fill: none; fill-opacity:0; stroke-width: 2; stroke: #e5e5e5" x1="320" y1="200" x2="320" y2="340"/>
  <line style="fill: none; fill-opacity:0; stroke-width: 2; stroke: #e5e5e5" x1="200" y1="220" x2="340" y2="220"/>
  <line style="fill: none; fill-opacity:0; stroke-width: 2; stroke: #e5e5e5" x1="200" y1="240" x2="340" y2="240"/>
  <line style="fill: none; fill-opacity:0; stroke-width: 2; stroke: #e5e5e5" x1="200" y1="260" x2="340" y2="260"/>
  <line style="fill: none; fill-opacity:0; stroke-width: 2; stroke: #e5e5e5" x1="200" y1="280" x2="340" y2="280"/>
  <line style="fill: none; fill-opacity:0; stroke-width: 2; stroke: #e5e5e5" x1="200" y1="300" x2="340" y2="300"/>
  <line style="fill: none; fill-opacity:0; stroke-width: 2; stroke: #e5e5e5" x1="200" y1="320" x2="340" y2="320"/>
  <line style="fill: none; fill-opacity:0; stroke-width: 2; stroke: #e5e5e5" x1="40" y1="200" x2="40" y2="340"/>
  <line style="fill: none; fill-opacity:0; stroke-width: 2; stroke: #e5e5e5" x1="60" y1="200" x2="60" y2="340"/>
  <line style="fill: none; fill-opacity:0; stroke-width: 2; stroke: #e5e5e5" x1="80" y1="200" x2="80" y2="340"/>
  <line style="fill: none; fill-opacity:0; stroke-width: 2; stroke: #e5e5e5" x1="100" y1="200" x2="100" y2="340"/>
  <line style="fill: none; fill-opacity:0; stroke-width: 2; stroke: #e5e5e5" x1="120" y1="200" x2="120" y2="340"/>
  <line style="fill: none; fill-opacity:0; stroke-width: 2; stroke: #e5e5e5" x1="140" y1="200" x2="140" y2="340"/>
  <line style="fill: none; fill-opacity:0; stroke-width: 2; stroke: #e5e5e5" x1="20" y1="220" x2="160" y2="220"/>
  <line style="fill: none; fill-opacity:0; stroke-width: 2; stroke: #e5e5e5" x1="20" y1="240" x2="160" y2="240"/>
  <line style="fill: none; fill-opacity:0; stroke-width: 2; stroke: #e5e5e5" x1="20" y1="260" x2="160" y2="260"/>
  <line style="fill: none; fill-opacity:0; stroke-width: 2; stroke: #e5e5e5" x1="20" y1="280" x2="160" y2="280"/>
  <line style="fill: none; fill-opacity:0; stroke-width: 2; stroke: #e5e5e5" x1="20" y1="300" x2="160" y2="300"/>
  <line style="fill: none; fill-opacity:0; stroke-width: 2; stroke: #e5e5e5" x1="20" y1="320" x2="160" y2="320"/>
  <line style="fill: none; fill-opacity:0; stroke-width: 2; stroke: #e5e5e5" x1="220" y1="20" x2="220" y2="160"/>
  <line style="fill: none; fill-opacity:0; stroke-width: 2; stroke: #e5e5e5" x1="240" y1="20" x2="240" y2="160"/>
  <line style="fill: none; fill-opacity:0; stroke-width: 2; stroke: #e5e5e5" x1="260" y1="20" x2="260" y2="160"/>
  <line style="fill: none; fill-opacity:0; stroke-width: 2; stroke: #e5e5e5" x1="280" y1="20" x2="280" y2="160"/>
  <line style="fill: none; fill-opacity:0; stroke-width: 2; stroke: #e5e5e5" x1="300" y1="20" x2="300" y2="160"/>
  <line style="fill: none; fill-opacity:0; stroke-width: 2; stroke: #e5e5e5" x1="320" y1="20" x2="320" y2="160"/>
  <line style="fill: none; fill-opacity:0; stroke-width: 2; stroke: #e5e5e5" x1="200" y1="40" x2="340" y2="40"/>
  <line style="fill: none; fill-opacity:0; stroke-width: 2; stroke: #e5e5e5" x1="200" y1="60" x2="340" y2="60"/>
  <line style="fill: none; fill-opacity:0; stroke-width: 2; stroke: #e5e5e5" x1="200" y1="80" x2="340" y2="80"/>
  <line style="fill: none; fill-opacity:0; stroke-width: 2; stroke: #e5e5e5" x1="200" y1="100" x2="340" y2="100"/>
  <line style="fill: none; fill-opacity:0; stroke-width: 2; stroke: #e5e5e5" x1="200" y1="120" x2="340" y2="120"/>
  <line style="fill: none; fill-opacity:0; stroke-width: 2; stroke: #e5e5e5" x1="200" y1="140" x2="340" y2="140"/>
  <line style="fill: none; fill-opacity:0; stroke-width: 2; stroke: #e5e5e5" x1="40" y1="20" x2="40" y2="160"/>
  <line style="fill: none; fill-opacity:0; stroke-width: 2; stroke: #e5e5e5" x1="60" y1="20" x2="60" y2="160"/>
  <line style="fill: none; fill-opacity:0; stroke-width: 2; stroke: #e5e5e5" x1="80" y1="20" x2="80" y2="160"/>
  <line style="fill: none; fill-opacity:0; stroke-width: 2; stroke: #e5e5e5" x1="100" y1="20" x2="100" y2="160"/>
  <line style="fill: none; fill-opacity:0; stroke-width: 2; stroke: #e5e5e5" x1="120" y1="20" x2="120" y2="160"/>
  <line style="fill: none; fill-opacity:0; stroke-width: 2; stroke: #e5e5e5" x1="140" y1="20" x2="140" y2="160"/>
  <line style="fill: none; fill-opacity:0; stroke-width: 2; stroke: #e5e5e5" x1="20" y1="40" x2="160" y2="40"/>
  <line style="fill: none; fill-opacity:0; stroke-width: 2; stroke: #e5e5e5" x1="20" y1="60" x2="160" y2="60"/>
  <line style="fill: none; fill-opacity:0; stroke-width: 2; stroke: #e5e5e5" x1="20" y1="80" x2="160" y2="80"/>
  <line style="fill: none; fill-opacity:0; stroke-width: 2; stroke: #e5e5e5" x1="20" y1="100" x2="160" y2="100"/>
  <line style="fill: none; fill-opacity:0; stroke-width: 2; stroke: #e5e5e5" x1="20" y1="120" x2="160" y2="120"/>
  <line style="fill: none; fill-opacity:0; stroke-width: 2; stroke: #e5e5e5" x1="20" y1="140" x2="160" y2="140"/>
  <rect style="fill: none; fill-opacity:0; stroke-width: 2; stroke: #000000" x="20" y="20" width="140" height="140"/>
  <rect style="fill: none; fill-opacity:0; stroke-width: 2; stroke: #000000" x="200" y="20" width="140" height="140"/>
  <rect style="fill: none; fill-opacity:0; stroke-width: 2; stroke: #000000" x="20" y="200" width="140" height="140"/>
  <rect style="fill: none; fill-opacity:0; stroke-width: 2; stroke: #000000" x="200" y="200" width="140" height="140"/>
  <line style="fill: none; fill-opacity:0; stroke-width: 2; stroke: #000000" x1="180" y1="0" x2="180" y2="420"/>
  <g>
    <rect style="fill: #b5bd68" x="40" y="40" width="20" height="20"/>
    <rect style="fill: none; fill-opacity:0; stroke-width: 2; stroke: #8c9440" x="40" y="40" width="20" height="20"/>
  </g>
  <g>
    <rect style="fill: #b5bd68" x="60" y="40" width="20" height="20"/>
    <rect style="fill: none; fill-opacity:0; stroke-width: 2; stroke: #8c9440" x="60" y="40" width="20" height="20"/>
  </g>
  <g>
    <rect style="fill: #b5bd68" x="80" y="40" width="20" height="20"/>
    <rect style="fill: none; fill-opacity:0; stroke-width: 2; stroke: #8c9440" x="80" y="40" width="20" height="20"/>
  </g>
  <g>
    <rect style="fill: #b5bd68" x="100" y="40" width="20" height="20"/>
    <rect style="fill: none; fill-opacity:0; stroke-width: 2; stroke: #8c9440" x="100" y="40" width="20" height="20"/>
  </g>
  <g>
    <rect style="fill: #b5bd68" x="120" y="40" width="20" height="20"/>
    <rect style="fill: none; fill-opacity:0; stroke-width: 2; stroke: #8c9440" x="120" y="40" width="20" height="20"/>
  </g>
  <g>
    <rect style="fill: #b5bd68" x="40" y="60" width="20" height="20"/>
    <rect style="fill: none; fill-opacity:0; stroke-width: 2; stroke: #8c9440" x="40" y="60" width="20" height="20"/>
  </g>
  <g>
    <rect style="fill: #b5bd68" x="60" y="60" width="20" height="20"/>
    <rect style="fill: none; fill-opacity:0; stroke-width: 2; stroke: #8c9440" x="60" y="60" width="20" height="20"/>
  </g>
  <g>
    <rect style="fill: #b5bd68" x="80" y="60" width="20" height="20"/>
    <rect style="fill: none; fill-opacity:0; stroke-width: 2; stroke: #8c9440" x="80" y="60" width="20" height="20"/>
  </g>
  <g>
    <rect style="fill: #b5bd68" x="100" y="60" width="20" height="20"/>
    <rect style="fill: none; fill-opacity:0; stroke-width: 2; stroke: #8c9440" x="100" y="60" width="20" height="20"/>
  </g>
  <g>
    <rect style="fill: #b5bd68" x="120" y="60" width="20" height="20"/>
    <rect style="fill: none; fill-opacity:0; stroke-width: 2; stroke: #8c9440" x="120" y="60" width="20" height="20"/>
  </g>
  <g>
    <rect style="fill: #b5bd68" x="40" y="80" width="20" height="20"/>
    <rect style="fill: none; fill-opacity:0; stroke-width: 2; stroke: #8c9440" x="40" y="80" width="20" height="20"/>
  </g>
  <g>
    <rect style="fill: #b5bd68" x="60" y="80" width="20" height="20"/>
    <rect style="fill: none; fill-opacity:0; stroke-width: 2; stroke: #8c9440" x="60" y="80" width="20" height="20"/>
  </g>
  <g>
    <rect style="fill: #b5bd68" x="100" y="80" width="20" height="20"/>
    <rect style="fill: none; fill-opacity:0; stroke-width: 2; stroke: #8c9440" x="100" y="80" width="20" height="20"/>
  </g>
  <g>
    <rect style="fill: #b5bd68" x="120" y="80" width="20" height="20"/>
    <rect style="fill: none; fill-opacity:0; stroke-width: 2; stroke: #8c9440" x="120" y="80" width="20" height="20"/>
  </g>
  <g>
    <rect style="fill: #b5bd68" x="40" y="100" width="20" height="20"/>
    <rect style="fill: none; fill-opacity:0; stroke-width: 2; stroke: #8c9440" x="40" y="100" width="20" height="20"/>
  </g>
  <g>
    <rect style="fill: #b5bd68" x="60" y="100" width="20" height="20"/>
    <rect style="fill: none; fill-opacity:0; stroke-width: 2; stroke: #8c9440" x="60" y="100" width="20" height="20"/>
  </g>
  <g>
    <rect style="fill: #b5bd68" x="80" y="100" width="20" height="20"/>
    <rect style="fill: none; fill-opacity:0; stroke-width: 2; stroke: #8c9440" x="80" y="100" width="20" height="20"/>
  </g>
  <g>
    <rect style="fill: #b5bd68" x="100" y="100" width="20" height="20"/>
    <rect style="fill: none; fill-opacity:0; stroke-width: 2; stroke: #8c9440" x="100" y="100" width="20" height="20"/>
  </g>
  <g>
    <rect style="fill: #b5bd68" x="120" y="100" width="20" height="20"/>
    <rect style="fill: none; fill-opacity:0; stroke-width: 2; stroke: #8c9440" x="120" y="100" width="20" height="20"/>
  </g>
  <g>
    <rect style="fill: #b5bd68" x="40" y="120" width="20" height="20"/>
    <rect style="fill: none; fill-opacity:0; stroke-width: 2; stroke: #8c9440" x="40" y="120" width="20" height="20"/>
  </g>
  <g>
    <rect style="fill: #b5bd68" x="60" y="120" width="20" height="20"/>
    <rect style="fill: none; fill-opacity:0; stroke-width: 2; stroke: #8c9440" x="60" y="120" width="20" height="20"/>
  </g>
  <g>
    <rect style="fill: #b5bd68" x="80" y="120" width="20" height="20"/>
    <rect style="fill: none; fill-opacity:0; stroke-width: 2; stroke: #8c9440" x="80" y="120" width="20" height="20"/>
  </g>
  <g>
    <rect style="fill: #b5bd68" x="100" y="120" width="20" height="20"/>
    <rect style="fill: none; fill-opacity:0; stroke-width: 2; stroke: #8c9440" x="100" y="120" width="20" height="20"/>
  </g>
  <g>
    <rect style="fill: #b5bd68" x="120" y="120" width="20" height="20"/>
    <rect style="fill: none; fill-opacity:0; stroke-width: 2; stroke: #8c9440" x="120" y="120" width="20" height="20"/>
  </g>
  <g>
    <rect style="fill: #cc6666" x="80" y="80" width="20" height="20"/>
    <rect style="fill: none; fill-opacity:0; stroke-width: 2; stroke: #a54242" x="80" y="80" width="20" height="20"/>
  </g>
  <g>
    <rect style="fill: #b5bd68" x="100" y="220" width="20" height="20"/>
    <rect style="fill: none; fill-opacity:0; stroke-width: 2; stroke: #8c9440" x="100" y="220" width="20" height="20"/>
  </g>
  <g>
    <rect style="fill: #b5bd68" x="120" y="220" width="20" height="20"/>
    <rect style="fill: none; fill-opacity:0; stroke-width: 2; stroke: #8c9440" x="120" y="220" width="20" height="20"/>
  </g>
  <g>
    <rect style="fill: #b5bd68" x="140" y="220" width="20" height="20"/>
    <rect style="fill: none; fill-opacity:0; stroke-width: 2; stroke: #8c9440" x="140" y="220" width="20" height="20"/>
  </g>
  <g>
    <rect style="fill: #b5bd68" x="100" y="240" width="20" height="20"/>
    <rect style="fill: none; fill-opacity:0; stroke-width: 2; stroke: #8c9440" x="100" y="240" width="20" height="20"/>
  </g>
  <g>
    <rect style="fill: #b5bd68" x="140" y="240" width="20" height="20"/>
    <rect style="fill: none; fill-opacity:0; stroke-width: 2; stroke: #8c9440" x="140" y="240" width="20" height="20"/>
  </g>
  <g>
    <rect style="fill: #b5bd68" x="100" y="260" width="20" height="20"/>
    <rect style="fill: none; fill-opacity:0; stroke-width: 2; stroke: #8c9440" x="100" y="260" width="20" height="20"/>
  </g>
  <g>
    <rect style="fill: #b5bd68" x="120" y="260" width="20" height="20"/>
    <rect style="fill: none; fill-opacity:0; stroke-width: 2; stroke: #8c9440" x="120" y="260" width="20" height="20"/>
  </g>
  <g>
    <rect style="fill: #b5bd68" x="140" y="260" width="20" height="20"/>
    <rect style="fill: none; fill-opacity:0; stroke-width: 2; stroke: #8c9440" x="140" y="260" width="20" height="20"/>
  </g>
  <g>
    <rect style="fill: #cc6666" x="120" y="240" width="20" height="20"/>
    <rect style="fill: none; fill-opacity:0; stroke-width: 2; stroke: #a54242" x="120" y="240" width="20" height="20"/>
  </g>
  <text font-size="12.7998" style="fill: #000000;text-anchor:middle;font-family:sans-serif;font-style:normal;font-weight:normal" x="90" y="171.9">
    <tspan x="90" y="171.9">&lt;3, 3, 2&gt;</tspan>
  </text>
  <text font-size="12.7998" style="fill: #000000;text-anchor:middle;font-family:sans-serif;font-style:normal;font-weight:normal" x="90" y="352.272">
    <tspan x="90" y="352.272">&lt;5, 2, 1&gt;</tspan>
  </text>
  <text font-size="12.7998" style="fill: #000000;text-anchor:middle;font-family:sans-serif;font-style:normal;font-weight:normal" x="270" y="172.272">
    <tspan x="270" y="172.272">&lt;3, 3, 4&gt;</tspan>
  </text>
  <text font-size="12.7998" style="fill: #000000;text-anchor:middle;font-family:sans-serif;font-style:normal;font-weight:normal" x="270" y="352.272">
    <tspan x="270" y="352.272">&lt;4, 4, 3&gt;</tspan>
  </text>
  <g>
    <rect style="fill: #b5bd68" x="220" y="40" width="20" height="20"/>
    <rect style="fill: none; fill-opacity:0; stroke-width: 2; stroke: #8c9440" x="220" y="40" width="20" height="20"/>
  </g>
  <g>
    <rect style="fill: #b5bd68" x="240" y="40" width="20" height="20"/>
    <rect style="fill: none; fill-opacity:0; stroke-width: 2; stroke: #8c9440" x="240" y="40" width="20" height="20"/>
  </g>
  <g>
    <rect style="fill: #b5bd68" x="260" y="40" width="20" height="20"/>
    <rect style="fill: none; fill-opacity:0; stroke-width: 2; stroke: #8c9440" x="260" y="40" width="20" height="20"/>
  </g>
  <g>
    <rect style="fill: #b5bd68" x="280" y="40" width="20" height="20"/>
    <rect style="fill: none; fill-opacity:0; stroke-width: 2; stroke: #8c9440" x="280" y="40" width="20" height="20"/>
  </g>
  <g>
    <rect style="fill: #b5bd68" x="220" y="60" width="20" height="20"/>
    <rect style="fill: none; fill-opacity:0; stroke-width: 2; stroke: #8c9440" x="220" y="60" width="20" height="20"/>
  </g>
  <g>
    <rect style="fill: #b5bd68" x="240" y="60" width="20" height="20"/>
    <rect style="fill: none; fill-opacity:0; stroke-width: 2; stroke: #8c9440" x="240" y="60" width="20" height="20"/>
  </g>
  <g>
    <rect style="fill: #b5bd68" x="260" y="60" width="20" height="20"/>
    <rect style="fill: none; fill-opacity:0; stroke-width: 2; stroke: #8c9440" x="260" y="60" width="20" height="20"/>
  </g>
  <g>
    <rect style="fill: #b5bd68" x="280" y="60" width="20" height="20"/>
    <rect style="fill: none; fill-opacity:0; stroke-width: 2; stroke: #8c9440" x="280" y="60" width="20" height="20"/>
  </g>
  <g>
    <rect style="fill: #b5bd68" x="220" y="80" width="20" height="20"/>
    <rect style="fill: none; fill-opacity:0; stroke-width: 2; stroke: #8c9440" x="220" y="80" width="20" height="20"/>
  </g>
  <g>
    <rect style="fill: #b5bd68" x="240" y="80" width="20" height="20"/>
    <rect style="fill: none; fill-opacity:0; stroke-width: 2; stroke: #8c9440" x="240" y="80" width="20" height="20"/>
  </g>
  <g>
    <rect style="fill: #b5bd68" x="220" y="100" width="20" height="20"/>
    <rect style="fill: none; fill-opacity:0; stroke-width: 2; stroke: #8c9440" x="220" y="100" width="20" height="20"/>
  </g>
  <g>
    <rect style="fill: #b5bd68" x="240" y="100" width="20" height="20"/>
    <rect style="fill: none; fill-opacity:0; stroke-width: 2; stroke: #8c9440" x="240" y="100" width="20" height="20"/>
  </g>
  <g>
    <rect style="fill: #b5bd68" x="260" y="100" width="20" height="20"/>
    <rect style="fill: none; fill-opacity:0; stroke-width: 2; stroke: #8c9440" x="260" y="100" width="20" height="20"/>
  </g>
  <g>
    <rect style="fill: #b5bd68" x="280" y="100" width="20" height="20"/>
    <rect style="fill: none; fill-opacity:0; stroke-width: 2; stroke: #8c9440" x="280" y="100" width="20" height="20"/>
  </g>
  <g>
    <rect style="fill: #b5bd68" x="280" y="80" width="20" height="20"/>
    <rect style="fill: none; fill-opacity:0; stroke-width: 2; stroke: #8c9440" x="280" y="80" width="20" height="20"/>
  </g>
  <g>
    <rect style="fill: #cc6666" x="260" y="80" width="20" height="20"/>
    <rect style="fill: none; fill-opacity:0; stroke-width: 2; stroke: #a54242" x="260" y="80" width="20" height="20"/>
  </g>
  <g>
    <rect style="fill: #b5bd68" x="260" y="300" width="20" height="20"/>
    <rect style="fill: none; fill-opacity:0; stroke-width: 2; stroke: #8c9440" x="260" y="300" width="20" height="20"/>
  </g>
  <g>
    <rect style="fill: #b5bd68" x="280" y="300" width="20" height="20"/>
    <rect style="fill: none; fill-opacity:0; stroke-width: 2; stroke: #8c9440" x="280" y="300" width="20" height="20"/>
  </g>
  <g>
    <rect style="fill: #b5bd68" x="300" y="300" width="20" height="20"/>
    <rect style="fill: none; fill-opacity:0; stroke-width: 2; stroke: #8c9440" x="300" y="300" width="20" height="20"/>
  </g>
  <g>
    <rect style="fill: #b5bd68" x="260" y="280" width="20" height="20"/>
    <rect style="fill: none; fill-opacity:0; stroke-width: 2; stroke: #8c9440" x="260" y="280" width="20" height="20"/>
  </g>
  <g>
    <rect style="fill: #b5bd68" x="260" y="260" width="20" height="20"/>
    <rect style="fill: none; fill-opacity:0; stroke-width: 2; stroke: #8c9440" x="260" y="260" width="20" height="20"/>
  </g>
  <g>
    <rect style="fill: #b5bd68" x="280" y="260" width="20" height="20"/>
    <rect style="fill: none; fill-opacity:0; stroke-width: 2; stroke: #8c9440" x="280" y="260" width="20" height="20"/>
  </g>
  <g>
    <rect style="fill: #b5bd68" x="300" y="260" width="20" height="20"/>
    <rect style="fill: none; fill-opacity:0; stroke-width: 2; stroke: #8c9440" x="300" y="260" width="20" height="20"/>
  </g>
  <g>
    <rect style="fill: #b5bd68" x="300" y="280" width="20" height="20"/>
    <rect style="fill: none; fill-opacity:0; stroke-width: 2; stroke: #8c9440" x="300" y="280" width="20" height="20"/>
  </g>
  <g>
    <rect style="fill: #cc6666" x="280" y="280" width="20" height="20"/>
    <rect style="fill: none; fill-opacity:0; stroke-width: 2; stroke: #a54242" x="280" y="280" width="20" height="20"/>
  </g>
  <text font-size="12.7998" style="fill: #000000;text-anchor:end;font-family:sans-serif;font-style:normal;font-weight:normal" x="160" y="400">
    <tspan x="160" y="400">"Radius" Length</tspan>
  </text>
  <text font-size="12.7998" style="fill: #000000;text-anchor:start;font-family:sans-serif;font-style:normal;font-weight:normal" x="200" y="400">
    <tspan x="200" y="400">"Edge" Length</tspan>
  </text>
</svg>
