<?xml version="1.0" encoding="UTF-8" standalone="no"?>
<!DOCTYPE svg PUBLIC "-//W3C//DTD SVG 1.0//EN" "http://www.w3.org/TR/2001/PR-SVG-20010719/DTD/svg10.dtd">
<svg width="13cm" height="13cm" viewBox="19 19 243 258" xmlns="http://www.w3.org/2000/svg" xmlns:xlink="http://www.w3.org/1999/xlink">
  <line style="fill: none; fill-opacity:0; stroke-width: 2; stroke: #e5e5e5" x1="180" y1="160" x2="180" y2="260"/>
  <line style="fill: none; fill-opacity:0; stroke-width: 2; stroke: #e5e5e5" x1="200" y1="160" x2="200" y2="260"/>
  <line style="fill: none; fill-opacity:0; stroke-width: 2; stroke: #e5e5e5" x1="220" y1="160" x2="220" y2="260"/>
  <line style="fill: none; fill-opacity:0; stroke-width: 2; stroke: #e5e5e5" x1="240" y1="160" x2="240" y2="260"/>
  <line style="fill: none; fill-opacity:0; stroke-width: 2; stroke: #e5e5e5" x1="160" y1="180" x2="260" y2="180"/>
  <line style="fill: none; fill-opacity:0; stroke-width: 2; stroke: #e5e5e5" x1="160" y1="200" x2="260" y2="200"/>
  <line style="fill: none; fill-opacity:0; stroke-width: 2; stroke: #e5e5e5" x1="160" y1="220" x2="260" y2="220"/>
  <line style="fill: none; fill-opacity:0; stroke-width: 2; stroke: #e5e5e5" x1="160" y1="240" x2="260" y2="240"/>
  <line style="fill: none; fill-opacity:0; stroke-width: 2; stroke: #e5e5e5" x1="40" y1="160" x2="40" y2="260"/>
  <line style="fill: none; fill-opacity:0; stroke-width: 2; stroke: #e5e5e5" x1="60" y1="160" x2="60" y2="260"/>
  <line style="fill: none; fill-opacity:0; stroke-width: 2; stroke: #e5e5e5" x1="80" y1="160" x2="80" y2="260"/>
  <line style="fill: none; fill-opacity:0; stroke-width: 2; stroke: #e5e5e5" x1="100" y1="160" x2="100" y2="260"/>
  <line style="fill: none; fill-opacity:0; stroke-width: 2; stroke: #e5e5e5" x1="20" y1="180" x2="120" y2="180"/>
  <line style="fill: none; fill-opacity:0; stroke-width: 2; stroke: #e5e5e5" x1="20" y1="200" x2="120" y2="200"/>
  <line style="fill: none; fill-opacity:0; stroke-width: 2; stroke: #e5e5e5" x1="20" y1="220" x2="120" y2="220"/>
  <line style="fill: none; fill-opacity:0; stroke-width: 2; stroke: #e5e5e5" x1="20" y1="240" x2="120" y2="240"/>
  <line style="fill: none; fill-opacity:0; stroke-width: 2; stroke: #e5e5e5" x1="180" y1="20" x2="180" y2="120"/>
  <line style="fill: none; fill-opacity:0; stroke-width: 2; stroke: #e5e5e5" x1="200" y1="20" x2="200" y2="120"/>
  <line style="fill: none; fill-opacity:0; stroke-width: 2; stroke: #e5e5e5" x1="220" y1="20" x2="220" y2="120"/>
  <line style="fill: none; fill-opacity:0; stroke-width: 2; stroke: #e5e5e5" x1="240" y1="20" x2="240" y2="120"/>
  <line style="fill: none; fill-opacity:0; stroke-width: 2; stroke: #e5e5e5" x1="160" y1="40" x2="260" y2="40"/>
  <line style="fill: none; fill-opacity:0; stroke-width: 2; stroke: #e5e5e5" x1="160" y1="60" x2="260" y2="60"/>
  <line style="fill: none; fill-opacity:0; stroke-width: 2; stroke: #e5e5e5" x1="160" y1="80" x2="260" y2="80"/>
  <line style="fill: none; fill-opacity:0; stroke-width: 2; stroke: #e5e5e5" x1="160" y1="100" x2="260" y2="100"/>
  <line style="fill: none; fill-opacity:0; stroke-width: 2; stroke: #e5e5e5" x1="40" y1="20" x2="40" y2="120"/>
  <line style="fill: none; fill-opacity:0; stroke-width: 2; stroke: #e5e5e5" x1="60" y1="20" x2="60" y2="120"/>
  <line style="fill: none; fill-opacity:0; stroke-width: 2; stroke: #e5e5e5" x1="80" y1="20" x2="80" y2="120"/>
  <line style="fill: none; fill-opacity:0; stroke-width: 2; stroke: #e5e5e5" x1="100" y1="20" x2="100" y2="120"/>
  <line style="fill: none; fill-opacity:0; stroke-width: 2; stroke: #e5e5e5" x1="20" y1="40" x2="120" y2="40"/>
  <line style="fill: none; fill-opacity:0; stroke-width: 2; stroke: #e5e5e5" x1="20" y1="60" x2="120" y2="60"/>
  <line style="fill: none; fill-opacity:0; stroke-width: 2; stroke: #e5e5e5" x1="20" y1="80" x2="120" y2="80"/>
  <line style="fill: none; fill-opacity:0; stroke-width: 2; stroke: #e5e5e5" x1="20" y1="100" x2="120" y2="100"/>
  <line style="fill: none; fill-opacity:0; stroke-width: 2; stroke: #000000" x1="20" y1="20" x2="120" y2="20"/>
  <line style="fill: none; fill-opacity:0; stroke-width: 2; stroke: #000000" x1="20" y1="20" x2="20" y2="120"/>
  <line style="fill: none; fill-opacity:0; stroke-width: 2; stroke: #000000" x1="20" y1="120" x2="120" y2="120"/>
  <line style="fill: none; fill-opacity:0; stroke-width: 2; stroke: #000000" x1="120" y1="120" x2="120" y2="20"/>
  <line style="fill: none; fill-opacity:0; stroke-width: 2; stroke: #000000" x1="160" y1="20" x2="260" y2="20"/>
  <line style="fill: none; fill-opacity:0; stroke-width: 2; stroke: #000000" x1="160" y1="20" x2="160" y2="120"/>
  <line style="fill: none; fill-opacity:0; stroke-width: 2; stroke: #000000" x1="160" y1="120" x2="260" y2="120"/>
  <line style="fill: none; fill-opacity:0; stroke-width: 2; stroke: #000000" x1="260" y1="120" x2="260" y2="20"/>
  <line style="fill: none; fill-opacity:0; stroke-width: 2; stroke: #000000" x1="20" y1="160" x2="120" y2="160"/>
  <line style="fill: none; fill-opacity:0; stroke-width: 2; stroke: #000000" x1="20" y1="160" x2="20" y2="260"/>
  <line style="fill: none; fill-opacity:0; stroke-width: 2; stroke: #000000" x1="20" y1="260" x2="120" y2="260"/>
  <line style="fill: none; fill-opacity:0; stroke-width: 2; stroke: #000000" x1="120" y1="260" x2="120" y2="160"/>
  <line style="fill: none; fill-opacity:0; stroke-width: 2; stroke: #000000" x1="160" y1="160" x2="260" y2="160"/>
  <line style="fill: none; fill-opacity:0; stroke-width: 2; stroke: #000000" x1="160" y1="160" x2="160" y2="260"/>
  <line style="fill: none; fill-opacity:0; stroke-width: 2; stroke: #000000" x1="160" y1="260" x2="260" y2="260"/>
  <line style="fill: none; fill-opacity:0; stroke-width: 2; stroke: #000000" x1="260" y1="260" x2="260" y2="160"/>
  <text font-size="12.7998" style="fill: #000000;text-anchor:middle;font-family:sans-serif;font-style:normal;font-weight:normal" x="70" y="131.9">
    <tspan x="70" y="131.9">&lt;1, 2, 4&gt;</tspan>
  </text>
  <g>
    <rect style="fill: #b5bd68" x="40" y="60" width="20" height="20"/>
    <rect style="fill: none; fill-opacity:0; stroke-width: 2; stroke: #8c9440" x="40" y="60" width="20" height="20"/>
  </g>
  <g>
    <rect style="fill: #b5bd68" x="60" y="60" width="20" height="20"/>
    <rect style="fill: none; fill-opacity:0; stroke-width: 2; stroke: #8c9440" x="60" y="60" width="20" height="20"/>
  </g>
  <g>
    <rect style="fill: #b5bd68" x="80" y="60" width="20" height="20"/>
    <rect style="fill: none; fill-opacity:0; stroke-width: 2; stroke: #8c9440" x="80" y="60" width="20" height="20"/>
  </g>
  <g>
    <rect style="fill: #b5bd68" x="100" y="60" width="20" height="20"/>
    <rect style="fill: none; fill-opacity:0; stroke-width: 2; stroke: #8c9440" x="100" y="60" width="20" height="20"/>
  </g>
  <g>
    <rect style="fill: #b5bd68" x="180" y="100" width="20" height="20"/>
    <rect style="fill: none; fill-opacity:0; stroke-width: 2; stroke: #8c9440" x="180" y="100" width="20" height="20"/>
  </g>
  <g>
    <rect style="fill: #b5bd68" x="180" y="80" width="20" height="20"/>
    <rect style="fill: none; fill-opacity:0; stroke-width: 2; stroke: #8c9440" x="180" y="80" width="20" height="20"/>
  </g>
  <g>
    <rect style="fill: #b5bd68" x="60" y="220" width="20" height="20"/>
    <rect style="fill: none; fill-opacity:0; stroke-width: 2; stroke: #8c9440" x="60" y="220" width="20" height="20"/>
  </g>
  <g>
    <rect style="fill: #b5bd68" x="80" y="220" width="20" height="20"/>
    <rect style="fill: none; fill-opacity:0; stroke-width: 2; stroke: #8c9440" x="80" y="220" width="20" height="20"/>
  </g>
  <g>
    <rect style="fill: #b5bd68" x="240" y="180" width="20" height="20"/>
    <rect style="fill: none; fill-opacity:0; stroke-width: 2; stroke: #8c9440" x="240" y="180" width="20" height="20"/>
  </g>
  <g>
    <rect style="fill: #b5bd68" x="240" y="200" width="20" height="20"/>
    <rect style="fill: none; fill-opacity:0; stroke-width: 2; stroke: #8c9440" x="240" y="200" width="20" height="20"/>
  </g>
  <g>
    <rect style="fill: #b5bd68" x="240" y="220" width="20" height="20"/>
    <rect style="fill: none; fill-opacity:0; stroke-width: 2; stroke: #8c9440" x="240" y="220" width="20" height="20"/>
  </g>
  <text font-size="12.7998" style="fill: #000000;text-anchor:middle;font-family:sans-serif;font-style:normal;font-weight:normal" x="210" y="132.273">
    <tspan x="210" y="132.273">&lt;1, 3, -2&gt;</tspan>
  </text>
  <text font-size="12.7998" style="fill: #000000;text-anchor:middle;font-family:sans-serif;font-style:normal;font-weight:normal" x="70" y="272.273">
    <tspan x="70" y="272.273">&lt;2, 3, 2&gt;</tspan>
  </text>
  <text font-size="12.7998" style="fill: #000000;text-anchor:middle;font-family:sans-serif;font-style:normal;font-weight:normal" x="210" y="272.273">
    <tspan x="210" y="272.273">&lt;4, 1, -3&gt;</tspan>
  </text>
</svg>
