<?xml version="1.0" encoding="UTF-8" standalone="no"?>
<!DOCTYPE svg PUBLIC "-//W3C//DTD SVG 1.0//EN" "http://www.w3.org/TR/2001/PR-SVG-20010719/DTD/svg10.dtd">
<svg width="10cm" height="6cm" viewBox="19 16 186 109" xmlns="http://www.w3.org/2000/svg" xmlns:xlink="http://www.w3.org/1999/xlink">
  <g>
    <rect style="fill: #ffffff" x="20" y="20" width="40" height="40"/>
    <rect style="fill: none; fill-opacity:0; stroke-width: 2; stroke: #000000" x="20" y="20" width="40" height="40"/>
  </g>
  <g>
    <rect style="fill: #ffffff" x="20" y="80" width="40" height="40"/>
    <rect style="fill: none; fill-opacity:0; stroke-width: 2; stroke: #000000" x="20" y="80" width="40" height="40"/>
  </g>
  <g>
    <rect style="fill: #ffffff" x="140" y="20" width="40" height="40"/>
    <rect style="fill: none; fill-opacity:0; stroke-width: 2; stroke: #000000" x="140" y="20" width="40" height="40"/>
  </g>
  <g>
    <rect style="fill: #ffffff" x="140" y="80" width="40" height="40"/>
    <rect style="fill: none; fill-opacity:0; stroke-width: 2; stroke: #000000" x="140" y="80" width="40" height="40"/>
  </g>
  <text font-size="12.7998" style="fill: #000000;text-anchor:middle;font-family:sans-serif;font-style:normal;font-weight:normal" x="80" y="44.45">
    <tspan x="80" y="44.45">0</tspan>
  </text>
  <text font-size="12.7998" style="fill: #000000;text-anchor:middle;font-family:sans-serif;font-style:normal;font-weight:normal" x="200" y="44.2638">
    <tspan x="200" y="44.2638">1</tspan>
  </text>
  <text font-size="12.7998" style="fill: #000000;text-anchor:middle;font-family:sans-serif;font-style:normal;font-weight:normal" x="80" y="104.264">
    <tspan x="80" y="104.264">2</tspan>
  </text>
  <text font-size="12.7998" style="fill: #000000;text-anchor:middle;font-family:sans-serif;font-style:normal;font-weight:normal" x="200" y="104.264">
    <tspan x="200" y="104.264">3</tspan>
  </text>
  <line style="fill: none; fill-opacity:0; stroke-width: 6; stroke: #000000" x1="138" y1="20" x2="182" y2="20"/>
  <line style="fill: none; fill-opacity:0; stroke-width: 6; stroke: #000000" x1="60" y1="78" x2="60" y2="122"/>
  <line style="fill: none; fill-opacity:0; stroke-width: 6; stroke: #000000" x1="138" y1="80" x2="182" y2="80"/>
  <line style="fill: none; fill-opacity:0; stroke-width: 6; stroke: #000000" x1="180" y1="78" x2="180" y2="122"/>
</svg>
