<?xml version="1.0" encoding="UTF-8" standalone="no"?>
<!DOCTYPE svg PUBLIC "-//W3C//DTD SVG 1.0//EN" "http://www.w3.org/TR/2001/PR-SVG-20010719/DTD/svg10.dtd">
<svg width="10cm" height="10cm" viewBox="18 18 183 183" xmlns="http://www.w3.org/2000/svg" xmlns:xlink="http://www.w3.org/1999/xlink">
  <rect style="fill: none; fill-opacity:0; stroke-width: 2; stroke: #e5e5e5" x="20" y="20" width="20" height="20"/>
  <rect style="fill: none; fill-opacity:0; stroke-width: 2; stroke: #e5e5e5" x="40" y="20" width="20" height="20"/>
  <rect style="fill: none; fill-opacity:0; stroke-width: 2; stroke: #e5e5e5" x="60" y="20" width="20" height="20"/>
  <rect style="fill: none; fill-opacity:0; stroke-width: 2; stroke: #e5e5e5" x="80" y="20" width="20" height="20"/>
  <rect style="fill: none; fill-opacity:0; stroke-width: 2; stroke: #e5e5e5" x="100" y="20" width="20" height="20"/>
  <rect style="fill: none; fill-opacity:0; stroke-width: 2; stroke: #e5e5e5" x="120" y="20" width="20" height="20"/>
  <rect style="fill: none; fill-opacity:0; stroke-width: 2; stroke: #e5e5e5" x="140" y="20" width="20" height="20"/>
  <rect style="fill: none; fill-opacity:0; stroke-width: 2; stroke: #e5e5e5" x="160" y="20" width="20" height="20"/>
  <rect style="fill: none; fill-opacity:0; stroke-width: 2; stroke: #e5e5e5" x="180" y="20" width="20" height="20"/>
  <rect style="fill: none; fill-opacity:0; stroke-width: 2; stroke: #e5e5e5" x="20" y="40" width="20" height="20"/>
  <rect style="fill: none; fill-opacity:0; stroke-width: 2; stroke: #e5e5e5" x="40" y="40" width="20" height="20"/>
  <rect style="fill: none; fill-opacity:0; stroke-width: 2; stroke: #e5e5e5" x="60" y="40" width="20" height="20"/>
  <rect style="fill: none; fill-opacity:0; stroke-width: 2; stroke: #e5e5e5" x="80" y="40" width="20" height="20"/>
  <rect style="fill: none; fill-opacity:0; stroke-width: 2; stroke: #e5e5e5" x="100" y="40" width="20" height="20"/>
  <rect style="fill: none; fill-opacity:0; stroke-width: 2; stroke: #e5e5e5" x="120" y="40" width="20" height="20"/>
  <rect style="fill: none; fill-opacity:0; stroke-width: 2; stroke: #e5e5e5" x="140" y="40" width="20" height="20"/>
  <rect style="fill: none; fill-opacity:0; stroke-width: 2; stroke: #e5e5e5" x="160" y="40" width="20" height="20"/>
  <rect style="fill: none; fill-opacity:0; stroke-width: 2; stroke: #e5e5e5" x="180" y="40" width="20" height="20"/>
  <rect style="fill: none; fill-opacity:0; stroke-width: 2; stroke: #e5e5e5" x="20" y="60" width="20" height="20"/>
  <rect style="fill: none; fill-opacity:0; stroke-width: 2; stroke: #e5e5e5" x="40" y="60" width="20" height="20"/>
  <rect style="fill: none; fill-opacity:0; stroke-width: 2; stroke: #e5e5e5" x="60" y="60" width="20" height="20"/>
  <rect style="fill: none; fill-opacity:0; stroke-width: 2; stroke: #e5e5e5" x="80" y="60" width="20" height="20"/>
  <rect style="fill: none; fill-opacity:0; stroke-width: 2; stroke: #e5e5e5" x="100" y="60" width="20" height="20"/>
  <rect style="fill: none; fill-opacity:0; stroke-width: 2; stroke: #e5e5e5" x="120" y="60" width="20" height="20"/>
  <rect style="fill: none; fill-opacity:0; stroke-width: 2; stroke: #e5e5e5" x="140" y="60" width="20" height="20"/>
  <rect style="fill: none; fill-opacity:0; stroke-width: 2; stroke: #e5e5e5" x="160" y="60" width="20" height="20"/>
  <rect style="fill: none; fill-opacity:0; stroke-width: 2; stroke: #e5e5e5" x="180" y="60" width="20" height="20"/>
  <rect style="fill: none; fill-opacity:0; stroke-width: 2; stroke: #e5e5e5" x="20" y="80" width="20" height="20"/>
  <rect style="fill: none; fill-opacity:0; stroke-width: 2; stroke: #e5e5e5" x="40" y="80" width="20" height="20"/>
  <rect style="fill: none; fill-opacity:0; stroke-width: 2; stroke: #e5e5e5" x="60" y="80" width="20" height="20"/>
  <rect style="fill: none; fill-opacity:0; stroke-width: 2; stroke: #e5e5e5" x="80" y="80" width="20" height="20"/>
  <rect style="fill: none; fill-opacity:0; stroke-width: 2; stroke: #e5e5e5" x="100" y="80" width="20" height="20"/>
  <rect style="fill: none; fill-opacity:0; stroke-width: 2; stroke: #e5e5e5" x="120" y="80" width="20" height="20"/>
  <rect style="fill: none; fill-opacity:0; stroke-width: 2; stroke: #e5e5e5" x="140" y="80" width="20" height="20"/>
  <rect style="fill: none; fill-opacity:0; stroke-width: 2; stroke: #e5e5e5" x="160" y="80" width="20" height="20"/>
  <rect style="fill: none; fill-opacity:0; stroke-width: 2; stroke: #e5e5e5" x="180" y="80" width="20" height="20"/>
  <rect style="fill: none; fill-opacity:0; stroke-width: 2; stroke: #e5e5e5" x="20" y="100" width="20" height="20"/>
  <rect style="fill: none; fill-opacity:0; stroke-width: 2; stroke: #e5e5e5" x="40" y="100" width="20" height="20"/>
  <rect style="fill: none; fill-opacity:0; stroke-width: 2; stroke: #e5e5e5" x="60" y="100" width="20" height="20"/>
  <rect style="fill: none; fill-opacity:0; stroke-width: 2; stroke: #e5e5e5" x="80" y="100" width="20" height="20"/>
  <rect style="fill: none; fill-opacity:0; stroke-width: 2; stroke: #e5e5e5" x="100" y="100" width="20" height="20"/>
  <rect style="fill: none; fill-opacity:0; stroke-width: 2; stroke: #e5e5e5" x="120" y="100" width="20" height="20"/>
  <rect style="fill: none; fill-opacity:0; stroke-width: 2; stroke: #e5e5e5" x="140" y="100" width="20" height="20"/>
  <rect style="fill: none; fill-opacity:0; stroke-width: 2; stroke: #e5e5e5" x="160" y="100" width="20" height="20"/>
  <rect style="fill: none; fill-opacity:0; stroke-width: 2; stroke: #e5e5e5" x="180" y="100" width="20" height="20"/>
  <rect style="fill: none; fill-opacity:0; stroke-width: 2; stroke: #e5e5e5" x="20" y="120" width="20" height="20"/>
  <rect style="fill: none; fill-opacity:0; stroke-width: 2; stroke: #e5e5e5" x="40" y="120" width="20" height="20"/>
  <rect style="fill: none; fill-opacity:0; stroke-width: 2; stroke: #e5e5e5" x="60" y="120" width="20" height="20"/>
  <rect style="fill: none; fill-opacity:0; stroke-width: 2; stroke: #e5e5e5" x="80" y="120" width="20" height="20"/>
  <rect style="fill: none; fill-opacity:0; stroke-width: 2; stroke: #e5e5e5" x="100" y="120" width="20" height="20"/>
  <rect style="fill: none; fill-opacity:0; stroke-width: 2; stroke: #e5e5e5" x="120" y="120" width="20" height="20"/>
  <rect style="fill: none; fill-opacity:0; stroke-width: 2; stroke: #e5e5e5" x="140" y="120" width="20" height="20"/>
  <rect style="fill: none; fill-opacity:0; stroke-width: 2; stroke: #e5e5e5" x="160" y="120" width="20" height="20"/>
  <rect style="fill: none; fill-opacity:0; stroke-width: 2; stroke: #e5e5e5" x="180" y="120" width="20" height="20"/>
  <rect style="fill: none; fill-opacity:0; stroke-width: 2; stroke: #e5e5e5" x="20" y="140" width="20" height="20"/>
  <rect style="fill: none; fill-opacity:0; stroke-width: 2; stroke: #e5e5e5" x="40" y="140" width="20" height="20"/>
  <rect style="fill: none; fill-opacity:0; stroke-width: 2; stroke: #e5e5e5" x="60" y="140" width="20" height="20"/>
  <rect style="fill: none; fill-opacity:0; stroke-width: 2; stroke: #e5e5e5" x="80" y="140" width="20" height="20"/>
  <rect style="fill: none; fill-opacity:0; stroke-width: 2; stroke: #e5e5e5" x="100" y="140" width="20" height="20"/>
  <rect style="fill: none; fill-opacity:0; stroke-width: 2; stroke: #e5e5e5" x="120" y="140" width="20" height="20"/>
  <rect style="fill: none; fill-opacity:0; stroke-width: 2; stroke: #e5e5e5" x="140" y="140" width="20" height="20"/>
  <rect style="fill: none; fill-opacity:0; stroke-width: 2; stroke: #e5e5e5" x="160" y="140" width="20" height="20"/>
  <rect style="fill: none; fill-opacity:0; stroke-width: 2; stroke: #e5e5e5" x="180" y="140" width="20" height="20"/>
  <rect style="fill: none; fill-opacity:0; stroke-width: 2; stroke: #e5e5e5" x="20" y="160" width="20" height="20"/>
  <rect style="fill: none; fill-opacity:0; stroke-width: 2; stroke: #e5e5e5" x="40" y="160" width="20" height="20"/>
  <rect style="fill: none; fill-opacity:0; stroke-width: 2; stroke: #e5e5e5" x="60" y="160" width="20" height="20"/>
  <rect style="fill: none; fill-opacity:0; stroke-width: 2; stroke: #e5e5e5" x="80" y="160" width="20" height="20"/>
  <rect style="fill: none; fill-opacity:0; stroke-width: 2; stroke: #e5e5e5" x="100" y="160" width="20" height="20"/>
  <rect style="fill: none; fill-opacity:0; stroke-width: 2; stroke: #e5e5e5" x="120" y="160" width="20" height="20"/>
  <rect style="fill: none; fill-opacity:0; stroke-width: 2; stroke: #e5e5e5" x="140" y="160" width="20" height="20"/>
  <rect style="fill: none; fill-opacity:0; stroke-width: 2; stroke: #e5e5e5" x="160" y="160" width="20" height="20"/>
  <rect style="fill: none; fill-opacity:0; stroke-width: 2; stroke: #e5e5e5" x="180" y="160" width="20" height="20"/>
  <rect style="fill: none; fill-opacity:0; stroke-width: 2; stroke: #e5e5e5" x="20" y="180" width="20" height="20"/>
  <rect style="fill: none; fill-opacity:0; stroke-width: 2; stroke: #e5e5e5" x="40" y="180" width="20" height="20"/>
  <rect style="fill: none; fill-opacity:0; stroke-width: 2; stroke: #e5e5e5" x="60" y="180" width="20" height="20"/>
  <rect style="fill: none; fill-opacity:0; stroke-width: 2; stroke: #e5e5e5" x="80" y="180" width="20" height="20"/>
  <rect style="fill: none; fill-opacity:0; stroke-width: 2; stroke: #e5e5e5" x="100" y="180" width="20" height="20"/>
  <rect style="fill: none; fill-opacity:0; stroke-width: 2; stroke: #e5e5e5" x="120" y="180" width="20" height="20"/>
  <rect style="fill: none; fill-opacity:0; stroke-width: 2; stroke: #e5e5e5" x="140" y="180" width="20" height="20"/>
  <rect style="fill: none; fill-opacity:0; stroke-width: 2; stroke: #e5e5e5" x="160" y="180" width="20" height="20"/>
  <rect style="fill: none; fill-opacity:0; stroke-width: 2; stroke: #e5e5e5" x="180" y="180" width="20" height="20"/>
  <text font-size="12.7998" style="fill: #e5e5e5;text-anchor:middle;font-family:sans-serif;font-style:normal;font-weight:normal" x="30" y="34.45">
    <tspan x="30" y="34.45">2</tspan>
  </text>
  <text font-size="12.7998" style="fill: #e5e5e5;text-anchor:middle;font-family:sans-serif;font-style:normal;font-weight:normal" x="50" y="34.45">
    <tspan x="50" y="34.45">1</tspan>
  </text>
  <text font-size="12.7998" style="fill: #e5e5e5;text-anchor:middle;font-family:sans-serif;font-style:normal;font-weight:normal" x="70" y="34.45">
    <tspan x="70" y="34.45">1</tspan>
  </text>
  <line style="fill: none; fill-opacity:0; stroke-width: 2; stroke: #000000" x1="20" y1="40" x2="20" y2="200"/>
  <line style="fill: none; fill-opacity:0; stroke-width: 2; stroke: #000000" x1="40" y1="20" x2="160" y2="20"/>
  <line style="fill: none; fill-opacity:0; stroke-width: 2; stroke: #000000" x1="200" y1="40" x2="200" y2="120"/>
  <line style="fill: none; fill-opacity:0; stroke-width: 2; stroke: #000000" x1="160" y1="200" x2="100" y2="200"/>
  <line style="fill: none; fill-opacity:0; stroke-width: 2; stroke: #000000" x1="40" y1="20" x2="40" y2="80"/>
  <line style="fill: none; fill-opacity:0; stroke-width: 2; stroke: #000000" x1="40" y1="40" x2="20" y2="40"/>
  <line style="fill: none; fill-opacity:0; stroke-width: 2; stroke: #000000" x1="40" y1="60" x2="60" y2="60"/>
  <line style="fill: none; fill-opacity:0; stroke-width: 2; stroke: #000000" x1="60" y1="40" x2="120" y2="40"/>
  <line style="fill: none; fill-opacity:0; stroke-width: 2; stroke: #000000" x1="200" y1="40" x2="140" y2="40"/>
  <line style="fill: none; fill-opacity:0; stroke-width: 2; stroke: #000000" x1="160" y1="20" x2="160" y2="60"/>
  <line style="fill: none; fill-opacity:0; stroke-width: 2; stroke: #000000" x1="140" y1="40" x2="140" y2="60"/>
  <line style="fill: none; fill-opacity:0; stroke-width: 2; stroke: #000000" x1="200" y1="60" x2="180" y2="60"/>
  <line style="fill: none; fill-opacity:0; stroke-width: 2; stroke: #000000" x1="200" y1="120" x2="140" y2="120"/>
  <line style="fill: none; fill-opacity:0; stroke-width: 2; stroke: #000000" x1="160" y1="200" x2="160" y2="180"/>
  <line style="fill: none; fill-opacity:0; stroke-width: 2; stroke: #000000" x1="160" y1="180" x2="120" y2="180"/>
  <line style="fill: none; fill-opacity:0; stroke-width: 2; stroke: #000000" x1="140" y1="180" x2="140" y2="80"/>
  <line style="fill: none; fill-opacity:0; stroke-width: 2; stroke: #000000" x1="140" y1="80" x2="160" y2="80"/>
  <line style="fill: none; fill-opacity:0; stroke-width: 2; stroke: #000000" x1="180" y1="120" x2="180" y2="80"/>
  <line style="fill: none; fill-opacity:0; stroke-width: 2; stroke: #000000" x1="120" y1="80" x2="120" y2="100"/>
  <line style="fill: none; fill-opacity:0; stroke-width: 2; stroke: #000000" x1="120" y1="80" x2="100" y2="80"/>
  <line style="fill: none; fill-opacity:0; stroke-width: 2; stroke: #000000" x1="100" y1="80" x2="100" y2="60"/>
  <line style="fill: none; fill-opacity:0; stroke-width: 2; stroke: #000000" x1="80" y1="60" x2="80" y2="100"/>
  <line style="fill: none; fill-opacity:0; stroke-width: 2; stroke: #000000" x1="80" y1="80" x2="60" y2="80"/>
  <g>
    <rect style="fill: #000000" x="40" y="100" width="20" height="20"/>
    <rect style="fill: none; fill-opacity:0; stroke-width: 2; stroke: #000000" x="40" y="100" width="20" height="20"/>
  </g>
  <line style="fill: none; fill-opacity:0; stroke-width: 2; stroke: #000000" x1="80" y1="120" x2="120" y2="120"/>
  <line style="fill: none; fill-opacity:0; stroke-width: 2; stroke: #000000" x1="100" y1="120" x2="100" y2="100"/>
  <line style="fill: none; fill-opacity:0; stroke-width: 2; stroke: #000000" x1="80" y1="120" x2="80" y2="140"/>
  <line style="fill: none; fill-opacity:0; stroke-width: 2; stroke: #000000" x1="120" y1="120" x2="120" y2="140"/>
  <line style="fill: none; fill-opacity:0; stroke-width: 2; stroke: #000000" x1="100" y1="180" x2="80" y2="180"/>
  <line style="fill: none; fill-opacity:0; stroke-width: 2; stroke: #000000" x1="80" y1="200" x2="20" y2="200"/>
  <line style="fill: none; fill-opacity:0; stroke-width: 2; stroke: #000000" x1="100" y1="200" x2="100" y2="180"/>
  <line style="fill: none; fill-opacity:0; stroke-width: 2; stroke: #000000" x1="80" y1="200" x2="80" y2="160"/>
  <line style="fill: none; fill-opacity:0; stroke-width: 2; stroke: #000000" x1="40" y1="200" x2="40" y2="180"/>
  <line style="fill: none; fill-opacity:0; stroke-width: 2; stroke: #000000" x1="20" y1="160" x2="40" y2="160"/>
  <line style="fill: none; fill-opacity:0; stroke-width: 2; stroke: #000000" x1="40" y1="140" x2="60" y2="140"/>
  <line style="fill: none; fill-opacity:0; stroke-width: 2; stroke: #000000" x1="60" y1="140" x2="60" y2="180"/>
  <line style="fill: none; fill-opacity:0; stroke-width: 2; stroke: #000000" x1="60" y1="160" x2="120" y2="160"/>
  <line style="fill: none; fill-opacity:0; stroke-width: 2; stroke: #000000" x1="100" y1="160" x2="100" y2="140"/>
  <line style="fill: none; fill-opacity:0; stroke-width: 2; stroke: #000000" x1="120" y1="20" x2="120" y2="60"/>
  <text font-size="12.7998" style="fill: #000000;text-anchor:start;font-family:sans-serif;font-style:normal;font-weight:normal" x="20" y="20">
    <tspan x="20" y="20"></tspan>
  </text>
  <text font-size="12.7998" style="fill: #e5e5e5;text-anchor:middle;font-family:sans-serif;font-style:normal;font-weight:normal" x="90" y="34.45">
    <tspan x="90" y="34.45">1</tspan>
  </text>
  <text font-size="12.7998" style="fill: #e5e5e5;text-anchor:middle;font-family:sans-serif;font-style:normal;font-weight:normal" x="110" y="34.45">
    <tspan x="110" y="34.45">3</tspan>
  </text>
  <text font-size="12.7998" style="fill: #e5e5e5;text-anchor:middle;font-family:sans-serif;font-style:normal;font-weight:normal" x="130" y="34.2638">
    <tspan x="130" y="34.2638">1</tspan>
  </text>
  <text font-size="12.7998" style="fill: #e5e5e5;text-anchor:middle;font-family:sans-serif;font-style:normal;font-weight:normal" x="150" y="34.45">
    <tspan x="150" y="34.45">3</tspan>
  </text>
  <text font-size="12.7998" style="fill: #e5e5e5;text-anchor:middle;font-family:sans-serif;font-style:normal;font-weight:normal" x="170" y="34.2638">
    <tspan x="170" y="34.2638">0</tspan>
  </text>
  <text font-size="12.7998" style="fill: #e5e5e5;text-anchor:middle;font-family:sans-serif;font-style:normal;font-weight:normal" x="190" y="34.2638">
    <tspan x="190" y="34.2638">0</tspan>
  </text>
  <text font-size="12.7998" style="fill: #e5e5e5;text-anchor:middle;font-family:sans-serif;font-style:normal;font-weight:normal" x="30" y="54.2638">
    <tspan x="30" y="54.2638">3</tspan>
  </text>
  <text font-size="12.7998" style="fill: #e5e5e5;text-anchor:middle;font-family:sans-serif;font-style:normal;font-weight:normal" x="50" y="54.45">
    <tspan x="50" y="54.45">0</tspan>
  </text>
  <text font-size="12.7998" style="fill: #e5e5e5;text-anchor:middle;font-family:sans-serif;font-style:normal;font-weight:normal" x="70" y="54.45">
    <tspan x="70" y="54.45">1</tspan>
  </text>
  <text font-size="12.7998" style="fill: #e5e5e5;text-anchor:middle;font-family:sans-serif;font-style:normal;font-weight:normal" x="90" y="54.2638">
    <tspan x="90" y="54.2638">1</tspan>
  </text>
  <text font-size="12.7998" style="fill: #e5e5e5;text-anchor:middle;font-family:sans-serif;font-style:normal;font-weight:normal" x="110" y="54.45">
    <tspan x="110" y="54.45">3</tspan>
  </text>
  <text font-size="12.7998" style="fill: #e5e5e5;text-anchor:middle;font-family:sans-serif;font-style:normal;font-weight:normal" x="130" y="54.2638">
    <tspan x="130" y="54.2638">2</tspan>
  </text>
  <text font-size="12.7998" style="fill: #e5e5e5;text-anchor:middle;font-family:sans-serif;font-style:normal;font-weight:normal" x="150" y="54.2638">
    <tspan x="150" y="54.2638">3</tspan>
  </text>
  <text font-size="12.7998" style="fill: #e5e5e5;text-anchor:middle;font-family:sans-serif;font-style:normal;font-weight:normal" x="170" y="54.2638">
    <tspan x="170" y="54.2638">1</tspan>
  </text>
  <text font-size="12.7998" style="fill: #e5e5e5;text-anchor:middle;font-family:sans-serif;font-style:normal;font-weight:normal" x="190" y="54.2638">
    <tspan x="190" y="54.2638">3</tspan>
  </text>
  <text font-size="12.7998" style="fill: #e5e5e5;text-anchor:middle;font-family:sans-serif;font-style:normal;font-weight:normal" x="30" y="74.2638">
    <tspan x="30" y="74.2638">2</tspan>
  </text>
  <text font-size="12.7998" style="fill: #e5e5e5;text-anchor:middle;font-family:sans-serif;font-style:normal;font-weight:normal" x="50" y="74.2638">
    <tspan x="50" y="74.2638">1</tspan>
  </text>
  <text font-size="12.7998" style="fill: #e5e5e5;text-anchor:middle;font-family:sans-serif;font-style:normal;font-weight:normal" x="70" y="74.2638">
    <tspan x="70" y="74.2638">2</tspan>
  </text>
  <text font-size="12.7998" style="fill: #e5e5e5;text-anchor:middle;font-family:sans-serif;font-style:normal;font-weight:normal" x="90" y="74.2638">
    <tspan x="90" y="74.2638">2</tspan>
  </text>
  <text font-size="12.7998" style="fill: #e5e5e5;text-anchor:middle;font-family:sans-serif;font-style:normal;font-weight:normal" x="110" y="74.45">
    <tspan x="110" y="74.45">0</tspan>
  </text>
  <text font-size="12.7998" style="fill: #e5e5e5;text-anchor:middle;font-family:sans-serif;font-style:normal;font-weight:normal" x="130" y="74.2638">
    <tspan x="130" y="74.2638">0</tspan>
  </text>
  <text font-size="12.7998" style="fill: #e5e5e5;text-anchor:middle;font-family:sans-serif;font-style:normal;font-weight:normal" x="150" y="74.2638">
    <tspan x="150" y="74.2638">0</tspan>
  </text>
  <text font-size="12.7998" style="fill: #e5e5e5;text-anchor:middle;font-family:sans-serif;font-style:normal;font-weight:normal" x="170" y="74.2638">
    <tspan x="170" y="74.2638">0</tspan>
  </text>
  <text font-size="12.7998" style="fill: #e5e5e5;text-anchor:middle;font-family:sans-serif;font-style:normal;font-weight:normal" x="190" y="74.2638">
    <tspan x="190" y="74.2638">3</tspan>
  </text>
  <text font-size="12.7998" style="fill: #e5e5e5;text-anchor:middle;font-family:sans-serif;font-style:normal;font-weight:normal" x="30" y="94.2638">
    <tspan x="30" y="94.2638">0</tspan>
  </text>
  <text font-size="12.7998" style="fill: #e5e5e5;text-anchor:middle;font-family:sans-serif;font-style:normal;font-weight:normal" x="50" y="94.2638">
    <tspan x="50" y="94.2638">0</tspan>
  </text>
  <text font-size="12.7998" style="fill: #e5e5e5;text-anchor:middle;font-family:sans-serif;font-style:normal;font-weight:normal" x="70" y="94.2638">
    <tspan x="70" y="94.2638">3</tspan>
  </text>
  <text font-size="12.7998" style="fill: #e5e5e5;text-anchor:middle;font-family:sans-serif;font-style:normal;font-weight:normal" x="90" y="94.45">
    <tspan x="90" y="94.45">0</tspan>
  </text>
  <text font-size="12.7998" style="fill: #e5e5e5;text-anchor:middle;font-family:sans-serif;font-style:normal;font-weight:normal" x="110" y="94.2638">
    <tspan x="110" y="94.2638">3</tspan>
  </text>
  <text font-size="12.7998" style="fill: #e5e5e5;text-anchor:middle;font-family:sans-serif;font-style:normal;font-weight:normal" x="130" y="94.2638">
    <tspan x="130" y="94.2638">2</tspan>
  </text>
  <text font-size="12.7998" style="fill: #e5e5e5;text-anchor:middle;font-family:sans-serif;font-style:normal;font-weight:normal" x="150" y="94.2638">
    <tspan x="150" y="94.2638">1</tspan>
  </text>
  <text font-size="12.7998" style="fill: #e5e5e5;text-anchor:middle;font-family:sans-serif;font-style:normal;font-weight:normal" x="170" y="94.2638">
    <tspan x="170" y="94.2638">2</tspan>
  </text>
  <text font-size="12.7998" style="fill: #e5e5e5;text-anchor:middle;font-family:sans-serif;font-style:normal;font-weight:normal" x="190" y="94.2638">
    <tspan x="190" y="94.2638">2</tspan>
  </text>
  <text font-size="12.7998" style="fill: #e5e5e5;text-anchor:middle;font-family:sans-serif;font-style:normal;font-weight:normal" x="30" y="114.264">
    <tspan x="30" y="114.264">2</tspan>
  </text>
  <text font-size="12.7998" style="fill: #e5e5e5;text-anchor:middle;font-family:sans-serif;font-style:normal;font-weight:normal" x="70" y="114.264">
    <tspan x="70" y="114.264">0</tspan>
  </text>
  <text font-size="12.7998" style="fill: #e5e5e5;text-anchor:middle;font-family:sans-serif;font-style:normal;font-weight:normal" x="50" y="114.264">
    <tspan x="50" y="114.264">3</tspan>
  </text>
  <text font-size="12.7998" style="fill: #e5e5e5;text-anchor:middle;font-family:sans-serif;font-style:normal;font-weight:normal" x="110" y="114.45">
    <tspan x="110" y="114.45">0</tspan>
  </text>
  <text font-size="12.7998" style="fill: #e5e5e5;text-anchor:middle;font-family:sans-serif;font-style:normal;font-weight:normal" x="90" y="114.264">
    <tspan x="90" y="114.264">2</tspan>
  </text>
  <text font-size="12.7998" style="fill: #e5e5e5;text-anchor:middle;font-family:sans-serif;font-style:normal;font-weight:normal" x="130" y="114.264">
    <tspan x="130" y="114.264">2</tspan>
  </text>
  <text font-size="12.7998" style="fill: #e5e5e5;text-anchor:middle;font-family:sans-serif;font-style:normal;font-weight:normal" x="150" y="114.45">
    <tspan x="150" y="114.45">0</tspan>
  </text>
  <text font-size="12.7998" style="fill: #e5e5e5;text-anchor:middle;font-family:sans-serif;font-style:normal;font-weight:normal" x="170" y="114.264">
    <tspan x="170" y="114.264">2</tspan>
  </text>
  <text font-size="12.7998" style="fill: #e5e5e5;text-anchor:middle;font-family:sans-serif;font-style:normal;font-weight:normal" x="190" y="114.264">
    <tspan x="190" y="114.264">2</tspan>
  </text>
  <text font-size="12.7998" style="fill: #e5e5e5;text-anchor:middle;font-family:sans-serif;font-style:normal;font-weight:normal" x="30" y="134.264">
    <tspan x="30" y="134.264">0</tspan>
  </text>
  <text font-size="12.7998" style="fill: #e5e5e5;text-anchor:middle;font-family:sans-serif;font-style:normal;font-weight:normal" x="50" y="134.264">
    <tspan x="50" y="134.264">1</tspan>
  </text>
  <text font-size="12.7998" style="fill: #e5e5e5;text-anchor:middle;font-family:sans-serif;font-style:normal;font-weight:normal" x="70" y="134.264">
    <tspan x="70" y="134.264">2</tspan>
  </text>
  <text font-size="12.7998" style="fill: #e5e5e5;text-anchor:middle;font-family:sans-serif;font-style:normal;font-weight:normal" x="90" y="134.264">
    <tspan x="90" y="134.264">1</tspan>
  </text>
  <text font-size="12.7998" style="fill: #e5e5e5;text-anchor:middle;font-family:sans-serif;font-style:normal;font-weight:normal" x="110" y="134.264">
    <tspan x="110" y="134.264">3</tspan>
  </text>
  <text font-size="12.7998" style="fill: #e5e5e5;text-anchor:middle;font-family:sans-serif;font-style:normal;font-weight:normal" x="130" y="134.264">
    <tspan x="130" y="134.264">2</tspan>
  </text>
  <text font-size="12.7998" style="fill: #e5e5e5;text-anchor:middle;font-family:sans-serif;font-style:normal;font-weight:normal" x="150" y="134.45">
    <tspan x="150" y="134.45">1</tspan>
  </text>
  <text font-size="12.7998" style="fill: #e5e5e5;text-anchor:middle;font-family:sans-serif;font-style:normal;font-weight:normal" x="170" y="134.264">
    <tspan x="170" y="134.264">1</tspan>
  </text>
  <text font-size="12.7998" style="fill: #e5e5e5;text-anchor:middle;font-family:sans-serif;font-style:normal;font-weight:normal" x="190" y="134.264">
    <tspan x="190" y="134.264">1</tspan>
  </text>
  <text font-size="12.7998" style="fill: #e5e5e5;text-anchor:middle;font-family:sans-serif;font-style:normal;font-weight:normal" x="30" y="154.264">
    <tspan x="30" y="154.264">0</tspan>
  </text>
  <text font-size="12.7998" style="fill: #e5e5e5;text-anchor:middle;font-family:sans-serif;font-style:normal;font-weight:normal" x="50" y="154.264">
    <tspan x="50" y="154.264">3</tspan>
  </text>
  <text font-size="12.7998" style="fill: #e5e5e5;text-anchor:middle;font-family:sans-serif;font-style:normal;font-weight:normal" x="70" y="154.264">
    <tspan x="70" y="154.264">0</tspan>
  </text>
  <text font-size="12.7998" style="fill: #e5e5e5;text-anchor:middle;font-family:sans-serif;font-style:normal;font-weight:normal" x="90" y="154.264">
    <tspan x="90" y="154.264">2</tspan>
  </text>
  <text font-size="12.7998" style="fill: #e5e5e5;text-anchor:middle;font-family:sans-serif;font-style:normal;font-weight:normal" x="110" y="154.264">
    <tspan x="110" y="154.264">0</tspan>
  </text>
  <text font-size="12.7998" style="fill: #e5e5e5;text-anchor:middle;font-family:sans-serif;font-style:normal;font-weight:normal" x="130" y="154.264">
    <tspan x="130" y="154.264">2</tspan>
  </text>
  <text font-size="12.7998" style="fill: #e5e5e5;text-anchor:middle;font-family:sans-serif;font-style:normal;font-weight:normal" x="150" y="154.264">
    <tspan x="150" y="154.264">0</tspan>
  </text>
  <text font-size="12.7998" style="fill: #e5e5e5;text-anchor:middle;font-family:sans-serif;font-style:normal;font-weight:normal" x="170" y="154.264">
    <tspan x="170" y="154.264">0</tspan>
  </text>
  <text font-size="12.7998" style="fill: #e5e5e5;text-anchor:middle;font-family:sans-serif;font-style:normal;font-weight:normal" x="190" y="154.264">
    <tspan x="190" y="154.264">0</tspan>
  </text>
  <text font-size="12.7998" style="fill: #e5e5e5;text-anchor:middle;font-family:sans-serif;font-style:normal;font-weight:normal" x="30" y="174.264">
    <tspan x="30" y="174.264">1</tspan>
  </text>
  <text font-size="12.7998" style="fill: #e5e5e5;text-anchor:middle;font-family:sans-serif;font-style:normal;font-weight:normal" x="50" y="174.264">
    <tspan x="50" y="174.264">2</tspan>
  </text>
  <text font-size="12.7998" style="fill: #e5e5e5;text-anchor:middle;font-family:sans-serif;font-style:normal;font-weight:normal" x="70" y="174.264">
    <tspan x="70" y="174.264">3</tspan>
  </text>
  <text font-size="12.7998" style="fill: #e5e5e5;text-anchor:middle;font-family:sans-serif;font-style:normal;font-weight:normal" x="90" y="174.264">
    <tspan x="90" y="174.264">1</tspan>
  </text>
  <text font-size="12.7998" style="fill: #e5e5e5;text-anchor:middle;font-family:sans-serif;font-style:normal;font-weight:normal" x="110" y="174.264">
    <tspan x="110" y="174.264">1</tspan>
  </text>
  <text font-size="12.7998" style="fill: #e5e5e5;text-anchor:middle;font-family:sans-serif;font-style:normal;font-weight:normal" x="130" y="174.264">
    <tspan x="130" y="174.264">2</tspan>
  </text>
  <text font-size="12.7998" style="fill: #e5e5e5;text-anchor:middle;font-family:sans-serif;font-style:normal;font-weight:normal" x="150" y="174.264">
    <tspan x="150" y="174.264">0</tspan>
  </text>
  <text font-size="12.7998" style="fill: #e5e5e5;text-anchor:middle;font-family:sans-serif;font-style:normal;font-weight:normal" x="170" y="174.264">
    <tspan x="170" y="174.264">0</tspan>
  </text>
  <text font-size="12.7998" style="fill: #e5e5e5;text-anchor:middle;font-family:sans-serif;font-style:normal;font-weight:normal" x="190" y="174.264">
    <tspan x="190" y="174.264">0</tspan>
  </text>
  <text font-size="12.7998" style="fill: #e5e5e5;text-anchor:middle;font-family:sans-serif;font-style:normal;font-weight:normal" x="30" y="194.264">
    <tspan x="30" y="194.264">2</tspan>
  </text>
  <text font-size="12.7998" style="fill: #e5e5e5;text-anchor:middle;font-family:sans-serif;font-style:normal;font-weight:normal" x="50" y="194.264">
    <tspan x="50" y="194.264">0</tspan>
  </text>
  <text font-size="12.7998" style="fill: #e5e5e5;text-anchor:middle;font-family:sans-serif;font-style:normal;font-weight:normal" x="70" y="194.264">
    <tspan x="70" y="194.264">2</tspan>
  </text>
  <text font-size="12.7998" style="fill: #e5e5e5;text-anchor:middle;font-family:sans-serif;font-style:normal;font-weight:normal" x="90" y="194.264">
    <tspan x="90" y="194.264">3</tspan>
  </text>
  <text font-size="12.7998" style="fill: #e5e5e5;text-anchor:middle;font-family:sans-serif;font-style:normal;font-weight:normal" x="110" y="194.264">
    <tspan x="110" y="194.264">0</tspan>
  </text>
  <text font-size="12.7998" style="fill: #e5e5e5;text-anchor:middle;font-family:sans-serif;font-style:normal;font-weight:normal" x="130" y="194.264">
    <tspan x="130" y="194.264">1</tspan>
  </text>
  <text font-size="12.7998" style="fill: #e5e5e5;text-anchor:middle;font-family:sans-serif;font-style:normal;font-weight:normal" x="150" y="194.264">
    <tspan x="150" y="194.264">3</tspan>
  </text>
  <text font-size="12.7998" style="fill: #e5e5e5;text-anchor:middle;font-family:sans-serif;font-style:normal;font-weight:normal" x="170" y="194.264">
    <tspan x="170" y="194.264">0</tspan>
  </text>
  <text font-size="12.7998" style="fill: #e5e5e5;text-anchor:middle;font-family:sans-serif;font-style:normal;font-weight:normal" x="190" y="194.264">
    <tspan x="190" y="194.264">0</tspan>
  </text>
</svg>
