<?xml version="1.0" encoding="UTF-8" standalone="no"?>
<!DOCTYPE svg PUBLIC "-//W3C//DTD SVG 1.0//EN" "http://www.w3.org/TR/2001/PR-SVG-20010719/DTD/svg10.dtd">
<svg width="29cm" height="12cm" viewBox="38 25 563 236" xmlns="http://www.w3.org/2000/svg" xmlns:xlink="http://www.w3.org/1999/xlink">
  <rect style="fill: none; fill-opacity:0; stroke-width: 2; stroke: #000000" x="40" y="40" width="280" height="220"/>
  <rect style="fill: none; fill-opacity:0; stroke-width: 2; stroke: #000000" x="320" y="40" width="280" height="220"/>
  <g>
    <rect style="fill: #b5bd68" x="80" y="100" width="20" height="20"/>
    <rect style="fill: none; fill-opacity:0; stroke-width: 2; stroke: #8c9440" x="80" y="100" width="20" height="20"/>
  </g>
  <g>
    <rect style="fill: #b5bd68" x="100" y="100" width="20" height="20"/>
    <rect style="fill: none; fill-opacity:0; stroke-width: 2; stroke: #8c9440" x="100" y="100" width="20" height="20"/>
  </g>
  <g>
    <rect style="fill: #b5bd68" x="120" y="100" width="20" height="20"/>
    <rect style="fill: none; fill-opacity:0; stroke-width: 2; stroke: #8c9440" x="120" y="100" width="20" height="20"/>
  </g>
  <g>
    <rect style="fill: #b5bd68" x="140" y="100" width="20" height="20"/>
    <rect style="fill: none; fill-opacity:0; stroke-width: 2; stroke: #8c9440" x="140" y="100" width="20" height="20"/>
  </g>
  <g>
    <rect style="fill: #b5bd68" x="160" y="100" width="20" height="20"/>
    <rect style="fill: none; fill-opacity:0; stroke-width: 2; stroke: #8c9440" x="160" y="100" width="20" height="20"/>
  </g>
  <g>
    <rect style="fill: #b5bd68" x="180" y="100" width="20" height="20"/>
    <rect style="fill: none; fill-opacity:0; stroke-width: 2; stroke: #8c9440" x="180" y="100" width="20" height="20"/>
  </g>
  <g>
    <rect style="fill: #b5bd68" x="200" y="100" width="20" height="20"/>
    <rect style="fill: none; fill-opacity:0; stroke-width: 2; stroke: #8c9440" x="200" y="100" width="20" height="20"/>
  </g>
  <g>
    <rect style="fill: #b5bd68" x="220" y="100" width="20" height="20"/>
    <rect style="fill: none; fill-opacity:0; stroke-width: 2; stroke: #8c9440" x="220" y="100" width="20" height="20"/>
  </g>
  <g>
    <rect style="fill: #b5bd68" x="240" y="100" width="20" height="20"/>
    <rect style="fill: none; fill-opacity:0; stroke-width: 2; stroke: #8c9440" x="240" y="100" width="20" height="20"/>
  </g>
  <g>
    <rect style="fill: #b5bd68" x="260" y="100" width="20" height="20"/>
    <rect style="fill: none; fill-opacity:0; stroke-width: 2; stroke: #8c9440" x="260" y="100" width="20" height="20"/>
  </g>
  <g>
    <rect style="fill: #cc6666" x="80" y="200" width="20" height="20"/>
    <rect style="fill: none; fill-opacity:0; stroke-width: 2; stroke: #a54242" x="80" y="200" width="20" height="20"/>
  </g>
  <g>
    <rect style="fill: #cc6666" x="100" y="200" width="20" height="20"/>
    <rect style="fill: none; fill-opacity:0; stroke-width: 2; stroke: #a54242" x="100" y="200" width="20" height="20"/>
  </g>
  <g>
    <rect style="fill: #cc6666" x="120" y="200" width="20" height="20"/>
    <rect style="fill: none; fill-opacity:0; stroke-width: 2; stroke: #a54242" x="120" y="200" width="20" height="20"/>
  </g>
  <g>
    <rect style="fill: #cc6666" x="140" y="200" width="20" height="20"/>
    <rect style="fill: none; fill-opacity:0; stroke-width: 2; stroke: #a54242" x="140" y="200" width="20" height="20"/>
  </g>
  <g>
    <rect style="fill: #cc6666" x="160" y="200" width="20" height="20"/>
    <rect style="fill: none; fill-opacity:0; stroke-width: 2; stroke: #a54242" x="160" y="200" width="20" height="20"/>
  </g>
  <g>
    <rect style="fill: #cc6666" x="180" y="200" width="20" height="20"/>
    <rect style="fill: none; fill-opacity:0; stroke-width: 2; stroke: #a54242" x="180" y="200" width="20" height="20"/>
  </g>
  <g>
    <rect style="fill: #cc6666" x="200" y="200" width="20" height="20"/>
    <rect style="fill: none; fill-opacity:0; stroke-width: 2; stroke: #a54242" x="200" y="200" width="20" height="20"/>
  </g>
  <g>
    <rect style="fill: #cc6666" x="220" y="200" width="20" height="20"/>
    <rect style="fill: none; fill-opacity:0; stroke-width: 2; stroke: #a54242" x="220" y="200" width="20" height="20"/>
  </g>
  <g>
    <rect style="fill: #cc6666" x="240" y="200" width="20" height="20"/>
    <rect style="fill: none; fill-opacity:0; stroke-width: 2; stroke: #a54242" x="240" y="200" width="20" height="20"/>
  </g>
  <g>
    <rect style="fill: #cc6666" x="260" y="200" width="20" height="20"/>
    <rect style="fill: none; fill-opacity:0; stroke-width: 2; stroke: #a54242" x="260" y="200" width="20" height="20"/>
  </g>
  <g>
    <rect style="fill: #b5bd68" x="360" y="100" width="20" height="20"/>
    <rect style="fill: none; fill-opacity:0; stroke-width: 2; stroke: #8c9440" x="360" y="100" width="20" height="20"/>
  </g>
  <g>
    <rect style="fill: #b5bd68" x="380" y="100" width="20" height="20"/>
    <rect style="fill: none; fill-opacity:0; stroke-width: 2; stroke: #8c9440" x="380" y="100" width="20" height="20"/>
  </g>
  <g>
    <rect style="fill: #b5bd68" x="400" y="100" width="20" height="20"/>
    <rect style="fill: none; fill-opacity:0; stroke-width: 2; stroke: #8c9440" x="400" y="100" width="20" height="20"/>
  </g>
  <g>
    <rect style="fill: #b5bd68" x="420" y="100" width="20" height="20"/>
    <rect style="fill: none; fill-opacity:0; stroke-width: 2; stroke: #8c9440" x="420" y="100" width="20" height="20"/>
  </g>
  <g>
    <rect style="fill: #b5bd68" x="440" y="100" width="20" height="20"/>
    <rect style="fill: none; fill-opacity:0; stroke-width: 2; stroke: #8c9440" x="440" y="100" width="20" height="20"/>
  </g>
  <g>
    <rect style="fill: #b5bd68" x="460" y="100" width="20" height="20"/>
    <rect style="fill: none; fill-opacity:0; stroke-width: 2; stroke: #8c9440" x="460" y="100" width="20" height="20"/>
  </g>
  <g>
    <rect style="fill: #b5bd68" x="480" y="100" width="20" height="20"/>
    <rect style="fill: none; fill-opacity:0; stroke-width: 2; stroke: #8c9440" x="480" y="100" width="20" height="20"/>
  </g>
  <g>
    <rect style="fill: #cc6666" x="500" y="100" width="20" height="20"/>
    <rect style="fill: none; fill-opacity:0; stroke-width: 2; stroke: #a54242" x="500" y="100" width="20" height="20"/>
  </g>
  <g>
    <rect style="fill: #cc6666" x="520" y="100" width="20" height="20"/>
    <rect style="fill: none; fill-opacity:0; stroke-width: 2; stroke: #a54242" x="520" y="100" width="20" height="20"/>
  </g>
  <g>
    <rect style="fill: #cc6666" x="540" y="100" width="20" height="20"/>
    <rect style="fill: none; fill-opacity:0; stroke-width: 2; stroke: #a54242" x="540" y="100" width="20" height="20"/>
  </g>
  <g>
    <rect style="fill: #cc6666" x="360" y="200" width="20" height="20"/>
    <rect style="fill: none; fill-opacity:0; stroke-width: 2; stroke: #a54242" x="360" y="200" width="20" height="20"/>
  </g>
  <g>
    <rect style="fill: #cc6666" x="380" y="200" width="20" height="20"/>
    <rect style="fill: none; fill-opacity:0; stroke-width: 2; stroke: #a54242" x="380" y="200" width="20" height="20"/>
  </g>
  <g>
    <rect style="fill: #cc6666" x="400" y="200" width="20" height="20"/>
    <rect style="fill: none; fill-opacity:0; stroke-width: 2; stroke: #a54242" x="400" y="200" width="20" height="20"/>
  </g>
  <g>
    <rect style="fill: #cc6666" x="420" y="200" width="20" height="20"/>
    <rect style="fill: none; fill-opacity:0; stroke-width: 2; stroke: #a54242" x="420" y="200" width="20" height="20"/>
  </g>
  <g>
    <rect style="fill: #cc6666" x="440" y="200" width="20" height="20"/>
    <rect style="fill: none; fill-opacity:0; stroke-width: 2; stroke: #a54242" x="440" y="200" width="20" height="20"/>
  </g>
  <g>
    <rect style="fill: #cc6666" x="460" y="200" width="20" height="20"/>
    <rect style="fill: none; fill-opacity:0; stroke-width: 2; stroke: #a54242" x="460" y="200" width="20" height="20"/>
  </g>
  <g>
    <rect style="fill: #cc6666" x="480" y="200" width="20" height="20"/>
    <rect style="fill: none; fill-opacity:0; stroke-width: 2; stroke: #a54242" x="480" y="200" width="20" height="20"/>
  </g>
  <g>
    <rect style="fill: #b5bd68" x="500" y="200" width="20" height="20"/>
    <rect style="fill: none; fill-opacity:0; stroke-width: 2; stroke: #8c9440" x="500" y="200" width="20" height="20"/>
  </g>
  <g>
    <rect style="fill: #b5bd68" x="520" y="200" width="20" height="20"/>
    <rect style="fill: none; fill-opacity:0; stroke-width: 2; stroke: #8c9440" x="520" y="200" width="20" height="20"/>
  </g>
  <g>
    <rect style="fill: #b5bd68" x="540" y="200" width="20" height="20"/>
    <rect style="fill: none; fill-opacity:0; stroke-width: 2; stroke: #8c9440" x="540" y="200" width="20" height="20"/>
  </g>
  <line style="fill: none; fill-opacity:0; stroke-width: 2; stroke: #000000" x1="220" y1="80" x2="220" y2="240"/>
  <text font-size="12.7998" style="fill: #000000;text-anchor:middle;font-family:sans-serif;font-style:normal;font-weight:normal" x="220" y="80">
    <tspan x="220" y="80">Crossover Point</tspan>
  </text>
  <text font-size="12.7998" style="fill: #000000;text-anchor:middle;font-family:sans-serif;font-style:normal;font-weight:normal" x="180" y="37">
    <tspan x="180" y="37">Parents</tspan>
  </text>
  <text font-size="12.7998" style="fill: #000000;text-anchor:middle;font-family:sans-serif;font-style:normal;font-weight:normal" x="460" y="37">
    <tspan x="460" y="37">Offspring</tspan>
  </text>
</svg>
