<?xml version="1.0" encoding="UTF-8" standalone="no"?>
<!DOCTYPE svg PUBLIC "-//W3C//DTD SVG 1.0//EN" "http://www.w3.org/TR/2001/PR-SVG-20010719/DTD/svg10.dtd">
<svg width="49cm" height="49cm" viewBox="-2 -2 963 963" xmlns="http://www.w3.org/2000/svg" xmlns:xlink="http://www.w3.org/1999/xlink">
  <g>
    <rect style="fill: #000000" x="0" y="0" width="960" height="960"/>
    <rect style="fill: none; fill-opacity:0; stroke-width: 2; stroke: #000000" x="0" y="0" width="960" height="960"/>
  </g>
  <g>
    <rect style="fill: #ffffff" x="240" y="240" width="480" height="480"/>
    <rect style="fill: none; fill-opacity:0; stroke-width: 2; stroke: #ffffff" x="240" y="240" width="480" height="480"/>
  </g>
  <g>
    <rect style="fill: #ff3434" x="40" y="820" width="100" height="100"/>
    <rect style="fill: none; fill-opacity:0; stroke-width: 2; stroke: #000000" x="40" y="820" width="100" height="100"/>
  </g>
  <g>
    <rect style="fill: #6995a4" x="820" y="40" width="100" height="100"/>
    <rect style="fill: none; fill-opacity:0; stroke-width: 2; stroke: #000000" x="820" y="40" width="100" height="100"/>
  </g>
  <g>
    <rect style="fill: #ffffff" x="140" y="840" width="180" height="60"/>
    <rect style="fill: none; fill-opacity:0; stroke-width: 2; stroke: #ffffff" x="140" y="840" width="180" height="60"/>
  </g>
  <g>
    <rect style="fill: #ffffff" x="60" y="640" width="60" height="180"/>
    <rect style="fill: none; fill-opacity:0; stroke-width: 2; stroke: #ffffff" x="60" y="640" width="60" height="180"/>
  </g>
  <g>
    <rect style="fill: #ffffff" x="80" y="600" width="160" height="60"/>
    <rect style="fill: none; fill-opacity:0; stroke-width: 2; stroke: #ffffff" x="80" y="600" width="160" height="60"/>
  </g>
  <g>
    <rect style="fill: #ffffff" x="300" y="720" width="60" height="160"/>
    <rect style="fill: none; fill-opacity:0; stroke-width: 2; stroke: #ffffff" x="300" y="720" width="60" height="160"/>
  </g>
  <g>
    <rect style="fill: #ffffff" x="840" y="140" width="60" height="180"/>
    <rect style="fill: none; fill-opacity:0; stroke-width: 2; stroke: #ffffff" x="840" y="140" width="60" height="180"/>
  </g>
  <g>
    <rect style="fill: #ffffff" x="720" y="300" width="160" height="60"/>
    <rect style="fill: none; fill-opacity:0; stroke-width: 2; stroke: #ffffff" x="720" y="300" width="160" height="60"/>
  </g>
  <g>
    <rect style="fill: #ffffff" x="640" y="60" width="180" height="60"/>
    <rect style="fill: none; fill-opacity:0; stroke-width: 2; stroke: #ffffff" x="640" y="60" width="180" height="60"/>
  </g>
  <g>
    <rect style="fill: #ffffff" x="600" y="80" width="60" height="160"/>
    <rect style="fill: none; fill-opacity:0; stroke-width: 2; stroke: #ffffff" x="600" y="80" width="60" height="160"/>
  </g>
  <g>
    <rect style="fill: #722b9e" x="460" y="460" width="40" height="40"/>
    <rect style="fill: none; fill-opacity:0; stroke-width: 2; stroke: #722b9e" x="460" y="460" width="40" height="40"/>
  </g>
  <line style="fill: none; fill-opacity:0; stroke-width: 2; stroke: #e5e5e5" x1="20" y1="0" x2="20" y2="960"/>
  <line style="fill: none; fill-opacity:0; stroke-width: 2; stroke: #e5e5e5" x1="40" y1="0" x2="40" y2="960"/>
  <line style="fill: none; fill-opacity:0; stroke-width: 2; stroke: #e5e5e5" x1="0" y1="20" x2="960" y2="20"/>
  <line style="fill: none; fill-opacity:0; stroke-width: 2; stroke: #e5e5e5" x1="60" y1="0" x2="60" y2="960"/>
  <line style="fill: none; fill-opacity:0; stroke-width: 2; stroke: #e5e5e5" x1="100" y1="0" x2="100" y2="960"/>
  <line style="fill: none; fill-opacity:0; stroke-width: 2; stroke: #e5e5e5" x1="120" y1="0" x2="120" y2="960"/>
  <line style="fill: none; fill-opacity:0; stroke-width: 2; stroke: #e5e5e5" x1="80" y1="0" x2="80" y2="960"/>
  <line style="fill: none; fill-opacity:0; stroke-width: 2; stroke: #e5e5e5" x1="140" y1="0" x2="140" y2="960"/>
  <line style="fill: none; fill-opacity:0; stroke-width: 2; stroke: #e5e5e5" x1="180" y1="0" x2="180" y2="960"/>
  <line style="fill: none; fill-opacity:0; stroke-width: 2; stroke: #e5e5e5" x1="200" y1="0" x2="200" y2="960"/>
  <line style="fill: none; fill-opacity:0; stroke-width: 2; stroke: #e5e5e5" x1="160" y1="0" x2="160" y2="960"/>
  <line style="fill: none; fill-opacity:0; stroke-width: 2; stroke: #e5e5e5" x1="220" y1="0" x2="220" y2="960"/>
  <line style="fill: none; fill-opacity:0; stroke-width: 2; stroke: #e5e5e5" x1="260" y1="0" x2="260" y2="960"/>
  <line style="fill: none; fill-opacity:0; stroke-width: 2; stroke: #e5e5e5" x1="280" y1="0" x2="280" y2="960"/>
  <line style="fill: none; fill-opacity:0; stroke-width: 2; stroke: #e5e5e5" x1="240" y1="0" x2="240" y2="960"/>
  <line style="fill: none; fill-opacity:0; stroke-width: 2; stroke: #e5e5e5" x1="300" y1="0" x2="300" y2="960"/>
  <line style="fill: none; fill-opacity:0; stroke-width: 2; stroke: #e5e5e5" x1="340" y1="0" x2="340" y2="960"/>
  <line style="fill: none; fill-opacity:0; stroke-width: 2; stroke: #e5e5e5" x1="360" y1="0" x2="360" y2="960"/>
  <line style="fill: none; fill-opacity:0; stroke-width: 2; stroke: #e5e5e5" x1="320" y1="0" x2="320" y2="960"/>
  <line style="fill: none; fill-opacity:0; stroke-width: 2; stroke: #e5e5e5" x1="380" y1="0" x2="380" y2="960"/>
  <line style="fill: none; fill-opacity:0; stroke-width: 2; stroke: #e5e5e5" x1="420" y1="0" x2="420" y2="960"/>
  <line style="fill: none; fill-opacity:0; stroke-width: 2; stroke: #e5e5e5" x1="440" y1="0" x2="440" y2="960"/>
  <line style="fill: none; fill-opacity:0; stroke-width: 2; stroke: #e5e5e5" x1="400" y1="0" x2="400" y2="960"/>
  <line style="fill: none; fill-opacity:0; stroke-width: 2; stroke: #e5e5e5" x1="460" y1="0" x2="460" y2="960"/>
  <line style="fill: none; fill-opacity:0; stroke-width: 2; stroke: #e5e5e5" x1="500" y1="0" x2="500" y2="960"/>
  <line style="fill: none; fill-opacity:0; stroke-width: 2; stroke: #e5e5e5" x1="520" y1="0" x2="520" y2="960"/>
  <line style="fill: none; fill-opacity:0; stroke-width: 2; stroke: #e5e5e5" x1="480" y1="0" x2="480" y2="960"/>
  <line style="fill: none; fill-opacity:0; stroke-width: 2; stroke: #e5e5e5" x1="540" y1="0" x2="540" y2="960"/>
  <line style="fill: none; fill-opacity:0; stroke-width: 2; stroke: #e5e5e5" x1="580" y1="0" x2="580" y2="960"/>
  <line style="fill: none; fill-opacity:0; stroke-width: 2; stroke: #e5e5e5" x1="600" y1="0" x2="600" y2="960"/>
  <line style="fill: none; fill-opacity:0; stroke-width: 2; stroke: #e5e5e5" x1="560" y1="0" x2="560" y2="960"/>
  <line style="fill: none; fill-opacity:0; stroke-width: 2; stroke: #e5e5e5" x1="620" y1="0" x2="620" y2="960"/>
  <line style="fill: none; fill-opacity:0; stroke-width: 2; stroke: #e5e5e5" x1="660" y1="0" x2="660" y2="960"/>
  <line style="fill: none; fill-opacity:0; stroke-width: 2; stroke: #e5e5e5" x1="680" y1="0" x2="680" y2="960"/>
  <line style="fill: none; fill-opacity:0; stroke-width: 2; stroke: #e5e5e5" x1="640" y1="0" x2="640" y2="960"/>
  <line style="fill: none; fill-opacity:0; stroke-width: 2; stroke: #e5e5e5" x1="700" y1="0" x2="700" y2="960"/>
  <line style="fill: none; fill-opacity:0; stroke-width: 2; stroke: #e5e5e5" x1="740" y1="0" x2="740" y2="960"/>
  <line style="fill: none; fill-opacity:0; stroke-width: 2; stroke: #e5e5e5" x1="760" y1="0" x2="760" y2="960"/>
  <line style="fill: none; fill-opacity:0; stroke-width: 2; stroke: #e5e5e5" x1="720" y1="0" x2="720" y2="960"/>
  <line style="fill: none; fill-opacity:0; stroke-width: 2; stroke: #e5e5e5" x1="780" y1="0" x2="780" y2="960"/>
  <line style="fill: none; fill-opacity:0; stroke-width: 2; stroke: #e5e5e5" x1="820" y1="0" x2="820" y2="960"/>
  <line style="fill: none; fill-opacity:0; stroke-width: 2; stroke: #e5e5e5" x1="840" y1="0" x2="840" y2="960"/>
  <line style="fill: none; fill-opacity:0; stroke-width: 2; stroke: #e5e5e5" x1="800" y1="0" x2="800" y2="960"/>
  <line style="fill: none; fill-opacity:0; stroke-width: 2; stroke: #e5e5e5" x1="860" y1="0" x2="860" y2="960"/>
  <line style="fill: none; fill-opacity:0; stroke-width: 2; stroke: #e5e5e5" x1="900" y1="0" x2="900" y2="960"/>
  <line style="fill: none; fill-opacity:0; stroke-width: 2; stroke: #e5e5e5" x1="920" y1="0" x2="920" y2="960"/>
  <line style="fill: none; fill-opacity:0; stroke-width: 2; stroke: #e5e5e5" x1="880" y1="0" x2="880" y2="960"/>
  <line style="fill: none; fill-opacity:0; stroke-width: 2; stroke: #e5e5e5" x1="940" y1="0" x2="940" y2="960"/>
  <line style="fill: none; fill-opacity:0; stroke-width: 2; stroke: #e5e5e5" x1="0" y1="40" x2="960" y2="40"/>
  <line style="fill: none; fill-opacity:0; stroke-width: 2; stroke: #e5e5e5" x1="0" y1="60" x2="960" y2="60"/>
  <line style="fill: none; fill-opacity:0; stroke-width: 2; stroke: #e5e5e5" x1="0" y1="80" x2="960" y2="80"/>
  <line style="fill: none; fill-opacity:0; stroke-width: 2; stroke: #e5e5e5" x1="0" y1="100" x2="960" y2="100"/>
  <line style="fill: none; fill-opacity:0; stroke-width: 2; stroke: #e5e5e5" x1="0" y1="120" x2="960" y2="120"/>
  <line style="fill: none; fill-opacity:0; stroke-width: 2; stroke: #e5e5e5" x1="0" y1="140" x2="960" y2="140"/>
  <line style="fill: none; fill-opacity:0; stroke-width: 2; stroke: #e5e5e5" x1="0" y1="160" x2="960" y2="160"/>
  <line style="fill: none; fill-opacity:0; stroke-width: 2; stroke: #e5e5e5" x1="0" y1="180" x2="960" y2="180"/>
  <line style="fill: none; fill-opacity:0; stroke-width: 2; stroke: #e5e5e5" x1="0" y1="200" x2="960" y2="200"/>
  <line style="fill: none; fill-opacity:0; stroke-width: 2; stroke: #e5e5e5" x1="0" y1="220" x2="960" y2="220"/>
  <line style="fill: none; fill-opacity:0; stroke-width: 2; stroke: #e5e5e5" x1="0" y1="240" x2="960" y2="240"/>
  <line style="fill: none; fill-opacity:0; stroke-width: 2; stroke: #e5e5e5" x1="0" y1="260" x2="960" y2="260"/>
  <line style="fill: none; fill-opacity:0; stroke-width: 2; stroke: #e5e5e5" x1="0" y1="280" x2="960" y2="280"/>
  <line style="fill: none; fill-opacity:0; stroke-width: 2; stroke: #e5e5e5" x1="0" y1="300" x2="960" y2="300"/>
  <line style="fill: none; fill-opacity:0; stroke-width: 2; stroke: #e5e5e5" x1="0" y1="320" x2="960" y2="320"/>
  <line style="fill: none; fill-opacity:0; stroke-width: 2; stroke: #e5e5e5" x1="0" y1="340" x2="960" y2="340"/>
  <line style="fill: none; fill-opacity:0; stroke-width: 2; stroke: #e5e5e5" x1="0" y1="360" x2="960" y2="360"/>
  <line style="fill: none; fill-opacity:0; stroke-width: 2; stroke: #e5e5e5" x1="0" y1="380" x2="960" y2="380"/>
  <line style="fill: none; fill-opacity:0; stroke-width: 2; stroke: #e5e5e5" x1="0" y1="400" x2="960" y2="400"/>
  <line style="fill: none; fill-opacity:0; stroke-width: 2; stroke: #e5e5e5" x1="0" y1="420" x2="960" y2="420"/>
  <line style="fill: none; fill-opacity:0; stroke-width: 2; stroke: #e5e5e5" x1="0" y1="440" x2="960" y2="440"/>
  <line style="fill: none; fill-opacity:0; stroke-width: 2; stroke: #e5e5e5" x1="0" y1="460" x2="960" y2="460"/>
  <line style="fill: none; fill-opacity:0; stroke-width: 2; stroke: #e5e5e5" x1="0" y1="480" x2="960" y2="480"/>
  <line style="fill: none; fill-opacity:0; stroke-width: 2; stroke: #e5e5e5" x1="0" y1="500" x2="960" y2="500"/>
  <line style="fill: none; fill-opacity:0; stroke-width: 2; stroke: #e5e5e5" x1="0" y1="520" x2="960" y2="520"/>
  <line style="fill: none; fill-opacity:0; stroke-width: 2; stroke: #e5e5e5" x1="0" y1="540" x2="960" y2="540"/>
  <line style="fill: none; fill-opacity:0; stroke-width: 2; stroke: #e5e5e5" x1="0" y1="560" x2="960" y2="560"/>
  <line style="fill: none; fill-opacity:0; stroke-width: 2; stroke: #e5e5e5" x1="0" y1="580" x2="960" y2="580"/>
  <line style="fill: none; fill-opacity:0; stroke-width: 2; stroke: #e5e5e5" x1="0" y1="600" x2="960" y2="600"/>
  <line style="fill: none; fill-opacity:0; stroke-width: 2; stroke: #e5e5e5" x1="0" y1="620" x2="960" y2="620"/>
  <line style="fill: none; fill-opacity:0; stroke-width: 2; stroke: #e5e5e5" x1="0" y1="640" x2="960" y2="640"/>
  <line style="fill: none; fill-opacity:0; stroke-width: 2; stroke: #e5e5e5" x1="0" y1="660" x2="960" y2="660"/>
  <line style="fill: none; fill-opacity:0; stroke-width: 2; stroke: #e5e5e5" x1="0" y1="680" x2="960" y2="680"/>
  <line style="fill: none; fill-opacity:0; stroke-width: 2; stroke: #e5e5e5" x1="0" y1="700" x2="960" y2="700"/>
  <line style="fill: none; fill-opacity:0; stroke-width: 2; stroke: #e5e5e5" x1="0" y1="720" x2="960" y2="720"/>
  <line style="fill: none; fill-opacity:0; stroke-width: 2; stroke: #e5e5e5" x1="0" y1="740" x2="960" y2="740"/>
  <line style="fill: none; fill-opacity:0; stroke-width: 2; stroke: #e5e5e5" x1="0" y1="760" x2="960" y2="760"/>
  <line style="fill: none; fill-opacity:0; stroke-width: 2; stroke: #e5e5e5" x1="0" y1="780" x2="960" y2="780"/>
  <line style="fill: none; fill-opacity:0; stroke-width: 2; stroke: #e5e5e5" x1="0" y1="800" x2="960" y2="800"/>
  <line style="fill: none; fill-opacity:0; stroke-width: 2; stroke: #e5e5e5" x1="0" y1="820" x2="960" y2="820"/>
  <line style="fill: none; fill-opacity:0; stroke-width: 2; stroke: #e5e5e5" x1="0" y1="840" x2="960" y2="840"/>
  <line style="fill: none; fill-opacity:0; stroke-width: 2; stroke: #e5e5e5" x1="0" y1="860" x2="960" y2="860"/>
  <line style="fill: none; fill-opacity:0; stroke-width: 2; stroke: #e5e5e5" x1="0" y1="880" x2="960" y2="880"/>
  <line style="fill: none; fill-opacity:0; stroke-width: 2; stroke: #e5e5e5" x1="0" y1="900" x2="960" y2="900"/>
  <line style="fill: none; fill-opacity:0; stroke-width: 2; stroke: #e5e5e5" x1="0" y1="920" x2="960" y2="920"/>
  <line style="fill: none; fill-opacity:0; stroke-width: 2; stroke: #e5e5e5" x1="0" y1="940" x2="960" y2="940"/>
  <rect style="fill: none; fill-opacity:0; stroke-width: 2; stroke: #e5e5e5" x="0" y="0" width="960" height="960"/>
</svg>
