<?xml version="1.0" encoding="UTF-8" standalone="no"?>
<!DOCTYPE svg PUBLIC "-//W3C//DTD SVG 1.0//EN" "http://www.w3.org/TR/2001/PR-SVG-20010719/DTD/svg10.dtd">
<svg width="40cm" height="11cm" viewBox="98 258 783 203" xmlns="http://www.w3.org/2000/svg" xmlns:xlink="http://www.w3.org/1999/xlink">
  <g>
    <path style="fill: #ffffff" d="M 120 380 L 200,380 C 211.046,380 220,388.954 220,400 C 220,411.046 211.046,420 200,420 L 120,420 C 108.954,420 100,411.046 100,400 C 100,388.954 108.954,380 120,380z"/>
    <path style="fill: none; fill-opacity:0; stroke-width: 2; stroke: #000000" d="M 120 380 L 200,380 C 211.046,380 220,388.954 220,400 C 220,411.046 211.046,420 200,420 L 120,420 C 108.954,420 100,411.046 100,400 C 100,388.954 108.954,380 120,380"/>
    <text font-size="11.2889" style="fill: #000000;text-anchor:middle;font-family:sans-serif;font-style:normal;font-weight:normal" x="160" y="403.528">
      <tspan x="160" y="403.528">Start</tspan>
    </text>
  </g>
  <g>
    <rect style="fill: #ffffff" x="240" y="380" width="120" height="40.5778"/>
    <rect style="fill: none; fill-opacity:0; stroke-width: 2; stroke: #000000" x="240" y="380" width="120" height="40.5778"/>
    <text font-size="11.2889" style="fill: #000000;text-anchor:middle;font-family:sans-serif;font-style:normal;font-weight:normal" x="300" y="396.678">
      <tspan x="300" y="396.678">Generate Initial</tspan>
      <tspan x="300" y="410.789">Population</tspan>
    </text>
  </g>
  <g>
    <rect style="fill: #ffffff" x="400" y="380" width="160" height="40.5778"/>
    <rect style="fill: none; fill-opacity:0; stroke-width: 2; stroke: #000000" x="400" y="380" width="160" height="40.5778"/>
    <text font-size="11.2889" style="fill: #000000;text-anchor:middle;font-family:sans-serif;font-style:normal;font-weight:normal" x="480" y="396.678">
      <tspan x="480" y="396.678">Compute Fitness of </tspan>
      <tspan x="480" y="410.789">Each Individual</tspan>
    </text>
  </g>
  <g>
    <polygon style="fill: #ffffff" points="660.411,340 720.822,400.411 660.411,460.822 600,400.411 "/>
    <polygon style="fill: none; fill-opacity:0; stroke-width: 2; stroke: #000000" points="660.411,340 720.822,400.411 660.411,460.822 600,400.411 "/>
    <text font-size="11.2889" style="fill: #000000;text-anchor:middle;font-family:sans-serif;font-style:normal;font-weight:normal" x="660.411" y="396.8">
      <tspan x="660.411" y="396.8">Has Population</tspan>
      <tspan x="660.411" y="410.911">Converged?</tspan>
    </text>
  </g>
  <g>
    <rect style="fill: #ffffff" x="400" y="260" width="160" height="40.5778"/>
    <rect style="fill: none; fill-opacity:0; stroke-width: 2; stroke: #000000" x="400" y="260" width="160" height="40.5778"/>
    <text font-size="11.2889" style="fill: #000000;text-anchor:middle;font-family:sans-serif;font-style:normal;font-weight:normal" x="480" y="276.678">
      <tspan x="480" y="276.678">Reproduce to Create</tspan>
      <tspan x="480" y="290.789">New Generation</tspan>
    </text>
  </g>
  <text font-size="12.8" style="fill: #000000;text-anchor:start;font-family:sans-serif;font-style:normal;font-weight:normal" x="480" y="280.289">
    <tspan x="480" y="280.289"></tspan>
  </text>
  <g>
    <line style="fill: none; fill-opacity:0; stroke-width: 2; stroke: #000000" x1="220" y1="400" x2="235.528" y2="400.224"/>
    <polyline style="fill: none; fill-opacity:0; stroke-width: 2; stroke: #000000" points="227.693,405.112 237.764,400.257 227.837,395.113 "/>
  </g>
  <g>
    <line style="fill: none; fill-opacity:0; stroke-width: 2; stroke: #000000" x1="360" y1="400.289" x2="395.528" y2="400.289"/>
    <polyline style="fill: none; fill-opacity:0; stroke-width: 2; stroke: #000000" points="387.764,405.289 397.764,400.289 387.764,395.289 "/>
  </g>
  <g>
    <line style="fill: none; fill-opacity:0; stroke-width: 2; stroke: #000000" x1="560" y1="400.289" x2="595.528" y2="400.397"/>
    <polyline style="fill: none; fill-opacity:0; stroke-width: 2; stroke: #000000" points="587.749,405.374 597.764,400.404 587.779,395.374 "/>
  </g>
  <g>
    <polyline style="fill: none; fill-opacity:0; stroke-width: 2; stroke: #000000" points="660.411,340 660.411,280.289 564.472,280.289 "/>
    <polyline style="fill: none; fill-opacity:0; stroke-width: 2; stroke: #000000" points="572.236,275.289 562.236,280.289 572.236,285.289 "/>
  </g>
  <g>
    <line style="fill: none; fill-opacity:0; stroke-width: 2; stroke: #000000" x1="480" y1="300.578" x2="480" y2="375.528"/>
    <polyline style="fill: none; fill-opacity:0; stroke-width: 2; stroke: #000000" points="475,367.764 480,377.764 485,367.764 "/>
  </g>
  <g>
    <path style="fill: #ffffff" d="M 780 380 L 860,380 C 871.046,380 880,388.954 880,400 C 880,411.046 871.046,420 860,420 L 780,420 C 768.954,420 760,411.046 760,400 C 760,388.954 768.954,380 780,380z"/>
    <path style="fill: none; fill-opacity:0; stroke-width: 2; stroke: #000000" d="M 780 380 L 860,380 C 871.046,380 880,388.954 880,400 C 880,411.046 871.046,420 860,420 L 780,420 C 768.954,420 760,411.046 760,400 C 760,388.954 768.954,380 780,380"/>
    <text font-size="11.2889" style="fill: #000000;text-anchor:middle;font-family:sans-serif;font-style:normal;font-weight:normal" x="820" y="403.528">
      <tspan x="820" y="403.528">Finished</tspan>
    </text>
  </g>
  <g>
    <line style="fill: none; fill-opacity:0; stroke-width: 2; stroke: #000000" x1="720.822" y1="400.411" x2="755.528" y2="400.047"/>
    <polyline style="fill: none; fill-opacity:0; stroke-width: 2; stroke: #000000" points="747.817,405.128 757.764,400.023 747.712,395.129 "/>
  </g>
  <text font-size="9.03111" style="fill: #000000;text-anchor:middle;font-family:sans-serif;font-style:normal;font-weight:normal" x="640" y="323.125">
    <tspan x="640" y="323.125"> No</tspan>
  </text>
  <text font-size="9.03111" style="fill: #000000;text-anchor:middle;font-family:sans-serif;font-style:normal;font-weight:normal" x="740" y="383.125">
    <tspan x="740" y="383.125">Yes</tspan>
  </text>
</svg>
