<?xml version="1.0" encoding="UTF-8" standalone="no"?>
<!DOCTYPE svg PUBLIC "-//W3C//DTD SVG 1.0//EN" "http://www.w3.org/TR/2001/PR-SVG-20010719/DTD/svg10.dtd">
<svg width="33cm" height="7cm" viewBox="18 24 655 137" xmlns="http://www.w3.org/2000/svg" xmlns:xlink="http://www.w3.org/1999/xlink">
  <g>
    <rect style="fill: #b5bd68" x="20" y="140" width="19.6774" height="20.3333"/>
    <rect style="fill: none; fill-opacity:0; stroke-width: 2; stroke: #8c9440" x="20" y="140" width="19.6774" height="20.3333"/>
    <rect style="fill: none; fill-opacity:0; stroke-width: 2; stroke: #8c9440" x="20" y="140" width="19.6774" height="20.3333"/>
  </g>
  <g>
    <rect style="fill: #b5bd68" x="40" y="140" width="19.6774" height="20.3333"/>
    <rect style="fill: none; fill-opacity:0; stroke-width: 2; stroke: #8c9440" x="40" y="140" width="19.6774" height="20.3333"/>
    <rect style="fill: none; fill-opacity:0; stroke-width: 2; stroke: #8c9440" x="40" y="140" width="19.6774" height="20.3333"/>
  </g>
  <g>
    <rect style="fill: #b5bd68" x="60" y="140" width="19.6774" height="20.3333"/>
    <rect style="fill: none; fill-opacity:0; stroke-width: 2; stroke: #8c9440" x="60" y="140" width="19.6774" height="20.3333"/>
    <rect style="fill: none; fill-opacity:0; stroke-width: 2; stroke: #8c9440" x="60" y="140" width="19.6774" height="20.3333"/>
  </g>
  <g>
    <rect style="fill: #b5bd68" x="80" y="140" width="19.6774" height="20.3333"/>
    <rect style="fill: none; fill-opacity:0; stroke-width: 2; stroke: #8c9440" x="80" y="140" width="19.6774" height="20.3333"/>
    <rect style="fill: none; fill-opacity:0; stroke-width: 2; stroke: #8c9440" x="80" y="140" width="19.6774" height="20.3333"/>
  </g>
  <g>
    <rect style="fill: #b5bd68" x="100" y="140" width="19.6774" height="20.3333"/>
    <rect style="fill: none; fill-opacity:0; stroke-width: 2; stroke: #8c9440" x="100" y="140" width="19.6774" height="20.3333"/>
    <rect style="fill: none; fill-opacity:0; stroke-width: 2; stroke: #8c9440" x="100" y="140" width="19.6774" height="20.3333"/>
  </g>
  <g>
    <rect style="fill: #b5bd68" x="120" y="140" width="19.6774" height="20.3333"/>
    <rect style="fill: none; fill-opacity:0; stroke-width: 2; stroke: #8c9440" x="120" y="140" width="19.6774" height="20.3333"/>
    <rect style="fill: none; fill-opacity:0; stroke-width: 2; stroke: #8c9440" x="120" y="140" width="19.6774" height="20.3333"/>
  </g>
  <g>
    <rect style="fill: #b5bd68" x="140" y="140" width="19.6774" height="20.3333"/>
    <rect style="fill: none; fill-opacity:0; stroke-width: 2; stroke: #8c9440" x="140" y="140" width="19.6774" height="20.3333"/>
    <rect style="fill: none; fill-opacity:0; stroke-width: 2; stroke: #8c9440" x="140" y="140" width="19.6774" height="20.3333"/>
  </g>
  <g>
    <rect style="fill: #b5bd68" x="160" y="140" width="19.6774" height="20.3333"/>
    <rect style="fill: none; fill-opacity:0; stroke-width: 2; stroke: #8c9440" x="160" y="140" width="19.6774" height="20.3333"/>
    <rect style="fill: none; fill-opacity:0; stroke-width: 2; stroke: #8c9440" x="160" y="140" width="19.6774" height="20.3333"/>
  </g>
  <g>
    <rect style="fill: #b5bd68" x="180" y="140" width="19.6774" height="20.3333"/>
    <rect style="fill: none; fill-opacity:0; stroke-width: 2; stroke: #8c9440" x="180" y="140" width="19.6774" height="20.3333"/>
    <rect style="fill: none; fill-opacity:0; stroke-width: 2; stroke: #8c9440" x="180" y="140" width="19.6774" height="20.3333"/>
  </g>
  <g>
    <rect style="fill: #b5bd68" x="200" y="140" width="19.6774" height="20.3333"/>
    <rect style="fill: none; fill-opacity:0; stroke-width: 2; stroke: #8c9440" x="200" y="140" width="19.6774" height="20.3333"/>
    <rect style="fill: none; fill-opacity:0; stroke-width: 2; stroke: #8c9440" x="200" y="140" width="19.6774" height="20.3333"/>
  </g>
  <g>
    <rect style="fill: #b5bd68" x="220" y="140" width="19.6774" height="20.3333"/>
    <rect style="fill: none; fill-opacity:0; stroke-width: 2; stroke: #8c9440" x="220" y="140" width="19.6774" height="20.3333"/>
    <rect style="fill: none; fill-opacity:0; stroke-width: 2; stroke: #8c9440" x="220" y="140" width="19.6774" height="20.3333"/>
  </g>
  <g>
    <rect style="fill: #b5bd68" x="240" y="140" width="19.6774" height="20.3333"/>
    <rect style="fill: none; fill-opacity:0; stroke-width: 2; stroke: #8c9440" x="240" y="140" width="19.6774" height="20.3333"/>
    <rect style="fill: none; fill-opacity:0; stroke-width: 2; stroke: #8c9440" x="240" y="140" width="19.6774" height="20.3333"/>
  </g>
  <g>
    <rect style="fill: #b5bd68" x="260" y="140" width="19.6774" height="20.3333"/>
    <rect style="fill: none; fill-opacity:0; stroke-width: 2; stroke: #8c9440" x="260" y="140" width="19.6774" height="20.3333"/>
    <rect style="fill: none; fill-opacity:0; stroke-width: 2; stroke: #8c9440" x="260" y="140" width="19.6774" height="20.3333"/>
  </g>
  <g>
    <rect style="fill: #b5bd68" x="280" y="140" width="19.6774" height="20.3333"/>
    <rect style="fill: none; fill-opacity:0; stroke-width: 2; stroke: #8c9440" x="280" y="140" width="19.6774" height="20.3333"/>
    <rect style="fill: none; fill-opacity:0; stroke-width: 2; stroke: #8c9440" x="280" y="140" width="19.6774" height="20.3333"/>
  </g>
  <g>
    <rect style="fill: #b5bd68" x="300" y="140" width="19.6774" height="20.3333"/>
    <rect style="fill: none; fill-opacity:0; stroke-width: 2; stroke: #8c9440" x="300" y="140" width="19.6774" height="20.3333"/>
    <rect style="fill: none; fill-opacity:0; stroke-width: 2; stroke: #8c9440" x="300" y="140" width="19.6774" height="20.3333"/>
  </g>
  <g>
    <rect style="fill: #b294bb" x="320" y="140" width="19.6774" height="20.3333"/>
    <rect style="fill: none; fill-opacity:0; stroke-width: 2; stroke: #85678f" x="320" y="140" width="19.6774" height="20.3333"/>
    <rect style="fill: none; fill-opacity:0; stroke-width: 2; stroke: #85678f" x="320" y="140" width="19.6774" height="20.3333"/>
  </g>
  <g>
    <rect style="fill: #b294bb" x="340" y="140" width="19.6774" height="20.3333"/>
    <rect style="fill: none; fill-opacity:0; stroke-width: 2; stroke: #85678f" x="340" y="140" width="19.6774" height="20.3333"/>
    <rect style="fill: none; fill-opacity:0; stroke-width: 2; stroke: #85678f" x="340" y="140" width="19.6774" height="20.3333"/>
  </g>
  <g>
    <rect style="fill: #b294bb" x="360" y="140" width="19.6774" height="20.3333"/>
    <rect style="fill: none; fill-opacity:0; stroke-width: 2; stroke: #85678f" x="360" y="140" width="19.6774" height="20.3333"/>
    <rect style="fill: none; fill-opacity:0; stroke-width: 2; stroke: #85678f" x="360" y="140" width="19.6774" height="20.3333"/>
  </g>
  <g>
    <rect style="fill: #b294bb" x="380" y="140" width="19.6774" height="20.3333"/>
    <rect style="fill: none; fill-opacity:0; stroke-width: 2; stroke: #85678f" x="380" y="140" width="19.6774" height="20.3333"/>
    <rect style="fill: none; fill-opacity:0; stroke-width: 2; stroke: #85678f" x="380" y="140" width="19.6774" height="20.3333"/>
  </g>
  <g>
    <rect style="fill: #b294bb" x="400" y="140" width="19.6774" height="20.3333"/>
    <rect style="fill: none; fill-opacity:0; stroke-width: 2; stroke: #85678f" x="400" y="140" width="19.6774" height="20.3333"/>
    <rect style="fill: none; fill-opacity:0; stroke-width: 2; stroke: #85678f" x="400" y="140" width="19.6774" height="20.3333"/>
  </g>
  <g>
    <rect style="fill: #b294bb" x="420" y="140" width="19.6774" height="20.3333"/>
    <rect style="fill: none; fill-opacity:0; stroke-width: 2; stroke: #85678f" x="420" y="140" width="19.6774" height="20.3333"/>
    <rect style="fill: none; fill-opacity:0; stroke-width: 2; stroke: #85678f" x="420" y="140" width="19.6774" height="20.3333"/>
  </g>
  <g>
    <rect style="fill: #b294bb" x="440" y="140" width="19.6774" height="20.3333"/>
    <rect style="fill: none; fill-opacity:0; stroke-width: 2; stroke: #85678f" x="440" y="140" width="19.6774" height="20.3333"/>
    <rect style="fill: none; fill-opacity:0; stroke-width: 2; stroke: #85678f" x="440" y="140" width="19.6774" height="20.3333"/>
  </g>
  <g>
    <rect style="fill: #b294bb" x="460" y="140" width="19.6774" height="20.3333"/>
    <rect style="fill: none; fill-opacity:0; stroke-width: 2; stroke: #85678f" x="460" y="140" width="19.6774" height="20.3333"/>
    <rect style="fill: none; fill-opacity:0; stroke-width: 2; stroke: #85678f" x="460" y="140" width="19.6774" height="20.3333"/>
  </g>
  <g>
    <rect style="fill: #b294bb" x="480" y="140" width="19.6774" height="20.3333"/>
    <rect style="fill: none; fill-opacity:0; stroke-width: 2; stroke: #85678f" x="480" y="140" width="19.6774" height="20.3333"/>
    <rect style="fill: none; fill-opacity:0; stroke-width: 2; stroke: #85678f" x="480" y="140" width="19.6774" height="20.3333"/>
  </g>
  <g>
    <rect style="fill: #b294bb" x="500" y="140" width="19.6774" height="20.3333"/>
    <rect style="fill: none; fill-opacity:0; stroke-width: 2; stroke: #85678f" x="500" y="140" width="19.6774" height="20.3333"/>
    <rect style="fill: none; fill-opacity:0; stroke-width: 2; stroke: #85678f" x="500" y="140" width="19.6774" height="20.3333"/>
  </g>
  <g>
    <rect style="fill: #b294bb" x="520" y="140" width="19.6774" height="20.3333"/>
    <rect style="fill: none; fill-opacity:0; stroke-width: 2; stroke: #85678f" x="520" y="140" width="19.6774" height="20.3333"/>
    <rect style="fill: none; fill-opacity:0; stroke-width: 2; stroke: #85678f" x="520" y="140" width="19.6774" height="20.3333"/>
  </g>
  <g>
    <rect style="fill: #b294bb" x="540" y="140" width="19.6774" height="20.3333"/>
    <rect style="fill: none; fill-opacity:0; stroke-width: 2; stroke: #85678f" x="540" y="140" width="19.6774" height="20.3333"/>
    <rect style="fill: none; fill-opacity:0; stroke-width: 2; stroke: #85678f" x="540" y="140" width="19.6774" height="20.3333"/>
  </g>
  <g>
    <rect style="fill: #b294bb" x="560" y="140" width="19.6774" height="20.3333"/>
    <rect style="fill: none; fill-opacity:0; stroke-width: 2; stroke: #85678f" x="560" y="140" width="19.6774" height="20.3333"/>
    <rect style="fill: none; fill-opacity:0; stroke-width: 2; stroke: #85678f" x="560" y="140" width="19.6774" height="20.3333"/>
  </g>
  <g>
    <rect style="fill: #b294bb" x="580" y="140" width="19.6774" height="20.3333"/>
    <rect style="fill: none; fill-opacity:0; stroke-width: 2; stroke: #85678f" x="580" y="140" width="19.6774" height="20.3333"/>
    <rect style="fill: none; fill-opacity:0; stroke-width: 2; stroke: #85678f" x="580" y="140" width="19.6774" height="20.3333"/>
  </g>
  <g>
    <rect style="fill: #b294bb" x="600" y="140" width="19.6774" height="20.3333"/>
    <rect style="fill: none; fill-opacity:0; stroke-width: 2; stroke: #85678f" x="600" y="140" width="19.6774" height="20.3333"/>
    <rect style="fill: none; fill-opacity:0; stroke-width: 2; stroke: #85678f" x="600" y="140" width="19.6774" height="20.3333"/>
  </g>
  <g>
    <path style="fill: none; fill-opacity:0; stroke-width: 2; stroke: #000000" d="M 316.731,116.95 A 217.5,217.5 0 0 0 23.2695,116.95"/>
    <polyline style="fill: none; fill-opacity:0; stroke-width: 2; stroke: #000000" points="25.4123,107.941 21.6192,118.458 32.3089,115.182 "/>
    <polyline style="fill: none; fill-opacity:0; stroke-width: 2; stroke: #000000" points="307.691,115.182 318.381,118.458 314.588,107.941 "/>
  </g>
  <g>
    <path style="fill: none; fill-opacity:0; stroke-width: 2; stroke: #000000" d="M 616.731,116.95 A 217.5,217.5 0 0 0 323.269,116.95"/>
    <polyline style="fill: none; fill-opacity:0; stroke-width: 2; stroke: #000000" points="325.412,107.941 321.619,118.458 332.309,115.182 "/>
    <polyline style="fill: none; fill-opacity:0; stroke-width: 2; stroke: #000000" points="607.691,115.182 618.381,118.458 614.588,107.941 "/>
  </g>
  <text font-size="12.8" style="fill: #000000;text-anchor:middle;font-family:sans-serif;font-style:normal;font-weight:normal" x="170" y="40">
    <tspan x="170" y="40">Arena Genes</tspan>
  </text>
  <text font-size="12.8" style="fill: #000000;text-anchor:middle;font-family:sans-serif;font-style:normal;font-weight:normal" x="470" y="40">
    <tspan x="470" y="40">Corridor Genes</tspan>
  </text>
  <g>
    <rect style="fill: #cc6666" x="620" y="140" width="18.9032" height="19.5333"/>
    <rect style="fill: none; fill-opacity:0; stroke-width: 2; stroke: #a54242" x="620" y="140" width="18.9032" height="19.5333"/>
    <rect style="fill: none; fill-opacity:0; stroke-width: 2; stroke: #a54242" x="620" y="140" width="18.9032" height="19.5333"/>
  </g>
  <g>
    <line style="fill: none; fill-opacity:0; stroke-width: 2; stroke: #000000" x1="630" y1="60" x2="630" y2="115.528"/>
    <polyline style="fill: none; fill-opacity:0; stroke-width: 2; stroke: #000000" points="625,107.764 630,117.764 635,107.764 "/>
  </g>
  <text font-size="12.8" style="fill: #000000;text-anchor:middle;font-family:sans-serif;font-style:normal;font-weight:normal" x="630" y="36.45">
    <tspan x="630" y="36.45">Capture Point</tspan>
    <tspan x="630" y="52.45">Gene</tspan>
  </text>
</svg>
